<mxfile host="Electron" agent="Mozilla/5.0 (Windows NT 10.0; Win64; x64) AppleWebKit/537.36 (KHTML, like Gecko) draw.io/27.0.9 Chrome/134.0.6998.205 Electron/35.4.0 Safari/537.36" version="27.0.9">
  <diagram name="Pagina-1" id="DVhym5njRmE7fzytLBEw">
    <mxGraphModel dx="5393" dy="3317" grid="1" gridSize="10" guides="1" tooltips="1" connect="1" arrows="1" fold="1" page="0" pageScale="1" pageWidth="1169" pageHeight="827" math="0" shadow="0">
      <root>
        <mxCell id="0" />
        <mxCell id="1" parent="0" />
        <mxCell id="8ZeVd58lSpMRs0Z0SGCC-9" style="edgeStyle=orthogonalEdgeStyle;shape=connector;rounded=0;orthogonalLoop=1;jettySize=auto;html=1;exitX=0;exitY=0.5;exitDx=0;exitDy=0;entryX=1;entryY=0.5;entryDx=0;entryDy=0;strokeColor=#36393d;align=center;verticalAlign=middle;fontFamily=Helvetica;fontSize=11;fontColor=default;labelBackgroundColor=none;startFill=0;endArrow=none;fillColor=#cce5ff;" parent="1" source="8ZeVd58lSpMRs0Z0SGCC-1" target="8ZeVd58lSpMRs0Z0SGCC-2" edge="1">
          <mxGeometry relative="1" as="geometry" />
        </mxCell>
        <mxCell id="8ZeVd58lSpMRs0Z0SGCC-20" style="edgeStyle=orthogonalEdgeStyle;shape=link;rounded=0;orthogonalLoop=1;jettySize=auto;html=1;exitX=1;exitY=0.5;exitDx=0;exitDy=0;entryX=0;entryY=0.5;entryDx=0;entryDy=0;strokeColor=#36393d;align=center;verticalAlign=middle;fontFamily=Helvetica;fontSize=11;fontColor=default;labelBackgroundColor=none;startFill=0;endArrow=none;fillColor=#cce5ff;" parent="1" source="8ZeVd58lSpMRs0Z0SGCC-1" target="8ZeVd58lSpMRs0Z0SGCC-19" edge="1">
          <mxGeometry relative="1" as="geometry">
            <Array as="points" />
          </mxGeometry>
        </mxCell>
        <mxCell id="8ZeVd58lSpMRs0Z0SGCC-98" style="edgeStyle=none;shape=connector;rounded=0;orthogonalLoop=1;jettySize=auto;html=1;exitX=0.5;exitY=1;exitDx=0;exitDy=0;strokeColor=#36393d;align=center;verticalAlign=middle;fontFamily=Helvetica;fontSize=11;fontColor=default;labelBackgroundColor=none;startFill=0;endArrow=none;fillColor=#cce5ff;" parent="1" source="8ZeVd58lSpMRs0Z0SGCC-1" edge="1">
          <mxGeometry relative="1" as="geometry">
            <mxPoint x="550" y="480" as="targetPoint" />
          </mxGeometry>
        </mxCell>
        <mxCell id="8ZeVd58lSpMRs0Z0SGCC-1" value="Flight" style="whiteSpace=wrap;html=1;align=center;fillColor=#cce5ff;strokeColor=#36393d;labelBackgroundColor=none;" parent="1" vertex="1">
          <mxGeometry x="500" y="250" width="100" height="40" as="geometry" />
        </mxCell>
        <mxCell id="8ZeVd58lSpMRs0Z0SGCC-10" style="edgeStyle=orthogonalEdgeStyle;shape=connector;rounded=0;orthogonalLoop=1;jettySize=auto;html=1;exitX=0;exitY=0.5;exitDx=0;exitDy=0;entryX=1;entryY=0.5;entryDx=0;entryDy=0;strokeColor=#36393d;align=center;verticalAlign=middle;fontFamily=Helvetica;fontSize=11;fontColor=default;labelBackgroundColor=none;startFill=0;endArrow=none;fillColor=#cce5ff;" parent="1" source="8ZeVd58lSpMRs0Z0SGCC-2" target="8ZeVd58lSpMRs0Z0SGCC-5" edge="1">
          <mxGeometry relative="1" as="geometry" />
        </mxCell>
        <mxCell id="yvve5Ez18JVlXI8Y-3o4-2" style="rounded=0;orthogonalLoop=1;jettySize=auto;html=1;exitX=1;exitY=0;exitDx=0;exitDy=0;entryX=0;entryY=1;entryDx=0;entryDy=0;startArrow=none;startFill=0;endArrow=none;endFill=0;" parent="1" source="8ZeVd58lSpMRs0Z0SGCC-2" target="8ZeVd58lSpMRs0Z0SGCC-6" edge="1">
          <mxGeometry relative="1" as="geometry">
            <mxPoint x="470" y="110" as="targetPoint" />
          </mxGeometry>
        </mxCell>
        <mxCell id="8ZeVd58lSpMRs0Z0SGCC-2" value="Booking" style="whiteSpace=wrap;html=1;align=center;fillColor=#cce5ff;strokeColor=#36393d;labelBackgroundColor=none;" parent="1" vertex="1">
          <mxGeometry x="110" y="250" width="100" height="40" as="geometry" />
        </mxCell>
        <mxCell id="8ZeVd58lSpMRs0Z0SGCC-13" style="edgeStyle=orthogonalEdgeStyle;shape=link;rounded=0;orthogonalLoop=1;jettySize=auto;html=1;exitX=0.5;exitY=1;exitDx=0;exitDy=0;entryX=0.5;entryY=0;entryDx=0;entryDy=0;strokeColor=#36393d;align=center;verticalAlign=middle;fontFamily=Helvetica;fontSize=11;fontColor=default;labelBackgroundColor=none;startFill=0;endArrow=none;fillColor=#cce5ff;" parent="1" source="8ZeVd58lSpMRs0Z0SGCC-3" target="8ZeVd58lSpMRs0Z0SGCC-12" edge="1">
          <mxGeometry relative="1" as="geometry" />
        </mxCell>
        <mxCell id="8ZeVd58lSpMRs0Z0SGCC-3" value="User" style="whiteSpace=wrap;html=1;align=center;fillColor=#cce5ff;strokeColor=#36393d;labelBackgroundColor=none;" parent="1" vertex="1">
          <mxGeometry x="-520" y="40" width="100" height="40" as="geometry" />
        </mxCell>
        <mxCell id="8ZeVd58lSpMRs0Z0SGCC-4" value="Admin" style="whiteSpace=wrap;html=1;align=center;fillColor=#cce5ff;strokeColor=#36393d;labelBackgroundColor=none;" parent="1" vertex="1">
          <mxGeometry x="-700" y="250" width="100" height="40" as="geometry" />
        </mxCell>
        <mxCell id="8ZeVd58lSpMRs0Z0SGCC-5" value="Customer" style="whiteSpace=wrap;html=1;align=center;fillColor=#cce5ff;strokeColor=#36393d;labelBackgroundColor=none;" parent="1" vertex="1">
          <mxGeometry x="-340" y="250" width="100" height="40" as="geometry" />
        </mxCell>
        <mxCell id="8ZeVd58lSpMRs0Z0SGCC-8" style="edgeStyle=orthogonalEdgeStyle;rounded=0;orthogonalLoop=1;jettySize=auto;html=1;exitX=0.5;exitY=1;exitDx=0;exitDy=0;entryX=0.5;entryY=0;entryDx=0;entryDy=0;endArrow=none;startFill=0;fillColor=#cce5ff;strokeColor=#36393d;labelBackgroundColor=none;" parent="1" source="8ZeVd58lSpMRs0Z0SGCC-6" target="8ZeVd58lSpMRs0Z0SGCC-1" edge="1">
          <mxGeometry relative="1" as="geometry" />
        </mxCell>
        <mxCell id="8ZeVd58lSpMRs0Z0SGCC-55" style="edgeStyle=none;shape=connector;rounded=0;orthogonalLoop=1;jettySize=auto;html=1;exitX=1;exitY=0;exitDx=0;exitDy=0;entryX=0;entryY=1;entryDx=0;entryDy=0;strokeColor=#36393d;align=center;verticalAlign=middle;fontFamily=Helvetica;fontSize=11;fontColor=default;labelBackgroundColor=none;startFill=0;endArrow=none;fillColor=#cce5ff;" parent="1" source="8ZeVd58lSpMRs0Z0SGCC-6" target="8ZeVd58lSpMRs0Z0SGCC-50" edge="1">
          <mxGeometry relative="1" as="geometry" />
        </mxCell>
        <mxCell id="8ZeVd58lSpMRs0Z0SGCC-56" style="edgeStyle=none;shape=connector;rounded=0;orthogonalLoop=1;jettySize=auto;html=1;exitX=0.25;exitY=0;exitDx=0;exitDy=0;entryX=0.5;entryY=1;entryDx=0;entryDy=0;strokeColor=#36393d;align=center;verticalAlign=middle;fontFamily=Helvetica;fontSize=11;fontColor=default;labelBackgroundColor=none;startFill=0;endArrow=none;fillColor=#cce5ff;" parent="1" source="8ZeVd58lSpMRs0Z0SGCC-6" target="8ZeVd58lSpMRs0Z0SGCC-51" edge="1">
          <mxGeometry relative="1" as="geometry" />
        </mxCell>
        <mxCell id="8ZeVd58lSpMRs0Z0SGCC-57" style="edgeStyle=none;shape=connector;rounded=0;orthogonalLoop=1;jettySize=auto;html=1;exitX=0;exitY=0;exitDx=0;exitDy=0;entryX=1;entryY=1;entryDx=0;entryDy=0;strokeColor=#36393d;align=center;verticalAlign=middle;fontFamily=Helvetica;fontSize=11;fontColor=default;labelBackgroundColor=none;startFill=0;endArrow=none;fillColor=#cce5ff;" parent="1" source="8ZeVd58lSpMRs0Z0SGCC-6" target="8ZeVd58lSpMRs0Z0SGCC-49" edge="1">
          <mxGeometry relative="1" as="geometry" />
        </mxCell>
        <mxCell id="8ZeVd58lSpMRs0Z0SGCC-66" style="edgeStyle=none;shape=connector;rounded=0;orthogonalLoop=1;jettySize=auto;html=1;exitX=1;exitY=0.5;exitDx=0;exitDy=0;entryX=0;entryY=0.5;entryDx=0;entryDy=0;strokeColor=#36393d;align=center;verticalAlign=middle;fontFamily=Helvetica;fontSize=11;fontColor=default;labelBackgroundColor=none;startFill=0;endArrow=none;fillColor=#cce5ff;" parent="1" source="8ZeVd58lSpMRs0Z0SGCC-6" target="8ZeVd58lSpMRs0Z0SGCC-65" edge="1">
          <mxGeometry relative="1" as="geometry" />
        </mxCell>
        <mxCell id="yvve5Ez18JVlXI8Y-3o4-6" style="rounded=0;orthogonalLoop=1;jettySize=auto;html=1;exitX=0.75;exitY=0;exitDx=0;exitDy=0;entryX=0.5;entryY=1;entryDx=0;entryDy=0;endArrow=none;startFill=0;" parent="1" source="8ZeVd58lSpMRs0Z0SGCC-6" target="yvve5Ez18JVlXI8Y-3o4-5" edge="1">
          <mxGeometry relative="1" as="geometry" />
        </mxCell>
        <mxCell id="8ZeVd58lSpMRs0Z0SGCC-6" value="Passenger" style="whiteSpace=wrap;html=1;align=center;fillColor=#cce5ff;strokeColor=#36393d;labelBackgroundColor=none;" parent="1" vertex="1">
          <mxGeometry x="500" y="40" width="100" height="40" as="geometry" />
        </mxCell>
        <mxCell id="8ZeVd58lSpMRs0Z0SGCC-14" style="shape=connector;rounded=0;orthogonalLoop=1;jettySize=auto;html=1;exitX=1;exitY=0.5;exitDx=0;exitDy=0;entryX=0.5;entryY=0;entryDx=0;entryDy=0;strokeColor=#36393d;align=center;verticalAlign=middle;fontFamily=Helvetica;fontSize=11;fontColor=default;labelBackgroundColor=none;startFill=0;endArrow=none;fillColor=#cce5ff;" parent="1" source="8ZeVd58lSpMRs0Z0SGCC-12" target="8ZeVd58lSpMRs0Z0SGCC-5" edge="1">
          <mxGeometry relative="1" as="geometry" />
        </mxCell>
        <mxCell id="8ZeVd58lSpMRs0Z0SGCC-15" style="shape=connector;rounded=0;orthogonalLoop=1;jettySize=auto;html=1;exitX=0;exitY=0.5;exitDx=0;exitDy=0;entryX=0.5;entryY=0;entryDx=0;entryDy=0;strokeColor=#36393d;align=center;verticalAlign=middle;fontFamily=Helvetica;fontSize=11;fontColor=default;labelBackgroundColor=none;startFill=0;endArrow=none;fillColor=#cce5ff;" parent="1" source="8ZeVd58lSpMRs0Z0SGCC-12" target="8ZeVd58lSpMRs0Z0SGCC-4" edge="1">
          <mxGeometry relative="1" as="geometry" />
        </mxCell>
        <mxCell id="8ZeVd58lSpMRs0Z0SGCC-12" value="d" style="ellipse;whiteSpace=wrap;html=1;aspect=fixed;fontFamily=Helvetica;fontSize=11;labelBackgroundColor=none;fillColor=#fff2cc;strokeColor=#d6b656;" parent="1" vertex="1">
          <mxGeometry x="-480" y="150" width="20" height="20" as="geometry" />
        </mxCell>
        <mxCell id="8ZeVd58lSpMRs0Z0SGCC-77" style="edgeStyle=none;shape=connector;rounded=0;orthogonalLoop=1;jettySize=auto;html=1;exitX=1;exitY=1;exitDx=0;exitDy=0;entryX=0;entryY=0.5;entryDx=0;entryDy=0;strokeColor=#36393d;align=center;verticalAlign=middle;fontFamily=Helvetica;fontSize=11;fontColor=default;labelBackgroundColor=none;startFill=0;endArrow=none;fillColor=#cce5ff;" parent="1" source="8ZeVd58lSpMRs0Z0SGCC-17" target="8ZeVd58lSpMRs0Z0SGCC-75" edge="1">
          <mxGeometry relative="1" as="geometry" />
        </mxCell>
        <mxCell id="8ZeVd58lSpMRs0Z0SGCC-78" style="edgeStyle=none;shape=connector;rounded=0;orthogonalLoop=1;jettySize=auto;html=1;exitX=1;exitY=0;exitDx=0;exitDy=0;entryX=0;entryY=0.5;entryDx=0;entryDy=0;strokeColor=#36393d;align=center;verticalAlign=middle;fontFamily=Helvetica;fontSize=11;fontColor=default;labelBackgroundColor=none;startFill=0;endArrow=none;fillColor=#cce5ff;" parent="1" source="8ZeVd58lSpMRs0Z0SGCC-17" target="8ZeVd58lSpMRs0Z0SGCC-76" edge="1">
          <mxGeometry relative="1" as="geometry" />
        </mxCell>
        <mxCell id="8ZeVd58lSpMRs0Z0SGCC-17" value="Arriving" style="whiteSpace=wrap;html=1;align=center;fillColor=#cce5ff;strokeColor=#36393d;labelBackgroundColor=none;" parent="1" vertex="1">
          <mxGeometry x="770" y="160" width="100" height="40" as="geometry" />
        </mxCell>
        <mxCell id="8ZeVd58lSpMRs0Z0SGCC-79" style="edgeStyle=none;shape=connector;rounded=0;orthogonalLoop=1;jettySize=auto;html=1;exitX=0.5;exitY=1;exitDx=0;exitDy=0;entryX=0.5;entryY=0;entryDx=0;entryDy=0;strokeColor=#36393d;align=center;verticalAlign=middle;fontFamily=Helvetica;fontSize=11;fontColor=default;labelBackgroundColor=none;startFill=0;endArrow=none;fillColor=#cce5ff;" parent="1" source="8ZeVd58lSpMRs0Z0SGCC-18" target="8ZeVd58lSpMRs0Z0SGCC-23" edge="1">
          <mxGeometry relative="1" as="geometry" />
        </mxCell>
        <mxCell id="8ZeVd58lSpMRs0Z0SGCC-82" style="edgeStyle=none;shape=connector;rounded=0;orthogonalLoop=1;jettySize=auto;html=1;exitX=1;exitY=0;exitDx=0;exitDy=0;entryX=0;entryY=0.5;entryDx=0;entryDy=0;strokeColor=#36393d;align=center;verticalAlign=middle;fontFamily=Helvetica;fontSize=11;fontColor=default;labelBackgroundColor=none;startFill=0;endArrow=none;fillColor=#cce5ff;" parent="1" source="8ZeVd58lSpMRs0Z0SGCC-18" target="8ZeVd58lSpMRs0Z0SGCC-81" edge="1">
          <mxGeometry relative="1" as="geometry" />
        </mxCell>
        <mxCell id="8ZeVd58lSpMRs0Z0SGCC-83" style="edgeStyle=none;shape=connector;rounded=0;orthogonalLoop=1;jettySize=auto;html=1;exitX=1;exitY=1;exitDx=0;exitDy=0;entryX=0;entryY=0.5;entryDx=0;entryDy=0;strokeColor=#36393d;align=center;verticalAlign=middle;fontFamily=Helvetica;fontSize=11;fontColor=default;labelBackgroundColor=none;startFill=0;endArrow=none;fillColor=#cce5ff;" parent="1" source="8ZeVd58lSpMRs0Z0SGCC-18" target="8ZeVd58lSpMRs0Z0SGCC-80" edge="1">
          <mxGeometry relative="1" as="geometry" />
        </mxCell>
        <mxCell id="8ZeVd58lSpMRs0Z0SGCC-18" value="Departing" style="whiteSpace=wrap;html=1;align=center;fillColor=#cce5ff;strokeColor=#36393d;labelBackgroundColor=none;" parent="1" vertex="1">
          <mxGeometry x="770" y="340" width="100" height="40" as="geometry" />
        </mxCell>
        <mxCell id="8ZeVd58lSpMRs0Z0SGCC-21" style="shape=connector;rounded=0;orthogonalLoop=1;jettySize=auto;html=1;exitX=0;exitY=0.5;exitDx=0;exitDy=0;entryX=0;entryY=0.5;entryDx=0;entryDy=0;strokeColor=#36393d;align=center;verticalAlign=middle;fontFamily=Helvetica;fontSize=11;fontColor=default;labelBackgroundColor=none;startFill=0;endArrow=none;fillColor=#cce5ff;" parent="1" source="8ZeVd58lSpMRs0Z0SGCC-19" target="8ZeVd58lSpMRs0Z0SGCC-17" edge="1">
          <mxGeometry relative="1" as="geometry" />
        </mxCell>
        <mxCell id="8ZeVd58lSpMRs0Z0SGCC-22" style="shape=connector;rounded=0;orthogonalLoop=1;jettySize=auto;html=1;exitX=0.5;exitY=1;exitDx=0;exitDy=0;entryX=0;entryY=0.5;entryDx=0;entryDy=0;strokeColor=#36393d;align=center;verticalAlign=middle;fontFamily=Helvetica;fontSize=11;fontColor=default;labelBackgroundColor=none;startFill=0;endArrow=none;fillColor=#cce5ff;" parent="1" source="8ZeVd58lSpMRs0Z0SGCC-19" target="8ZeVd58lSpMRs0Z0SGCC-18" edge="1">
          <mxGeometry relative="1" as="geometry" />
        </mxCell>
        <mxCell id="8ZeVd58lSpMRs0Z0SGCC-19" value="d" style="ellipse;whiteSpace=wrap;html=1;aspect=fixed;fontFamily=Helvetica;fontSize=11;labelBackgroundColor=none;fillColor=#fff2cc;strokeColor=#d6b656;" parent="1" vertex="1">
          <mxGeometry x="680" y="260" width="20" height="20" as="geometry" />
        </mxCell>
        <mxCell id="8ZeVd58lSpMRs0Z0SGCC-85" style="edgeStyle=none;shape=connector;rounded=0;orthogonalLoop=1;jettySize=auto;html=1;exitX=0.5;exitY=1;exitDx=0;exitDy=0;entryX=0.5;entryY=0;entryDx=0;entryDy=0;strokeColor=#36393d;align=center;verticalAlign=middle;fontFamily=Helvetica;fontSize=11;fontColor=default;labelBackgroundColor=none;startFill=0;endArrow=none;fillColor=#cce5ff;" parent="1" source="8ZeVd58lSpMRs0Z0SGCC-23" target="8ZeVd58lSpMRs0Z0SGCC-84" edge="1">
          <mxGeometry relative="1" as="geometry" />
        </mxCell>
        <mxCell id="8ZeVd58lSpMRs0Z0SGCC-23" value="Gate" style="whiteSpace=wrap;html=1;align=center;fillColor=#cce5ff;strokeColor=#36393d;labelBackgroundColor=none;" parent="1" vertex="1">
          <mxGeometry x="770" y="510" width="100" height="40" as="geometry" />
        </mxCell>
        <mxCell id="8ZeVd58lSpMRs0Z0SGCC-28" style="edgeStyle=none;shape=connector;rounded=0;orthogonalLoop=1;jettySize=auto;html=1;exitX=1;exitY=0.5;exitDx=0;exitDy=0;entryX=0;entryY=0.5;entryDx=0;entryDy=0;strokeColor=#36393d;align=center;verticalAlign=middle;fontFamily=Helvetica;fontSize=11;fontColor=default;labelBackgroundColor=none;startFill=0;endArrow=none;fillColor=#cce5ff;" parent="1" source="8ZeVd58lSpMRs0Z0SGCC-25" target="8ZeVd58lSpMRs0Z0SGCC-3" edge="1">
          <mxGeometry relative="1" as="geometry" />
        </mxCell>
        <mxCell id="8ZeVd58lSpMRs0Z0SGCC-25" value="username" style="ellipse;whiteSpace=wrap;html=1;align=center;fontFamily=Helvetica;fontSize=11;labelBackgroundColor=none;fillColor=#f5f5f5;strokeColor=#666666;fontColor=#333333;" parent="1" vertex="1">
          <mxGeometry x="-650" y="40" width="100" height="40" as="geometry" />
        </mxCell>
        <mxCell id="8ZeVd58lSpMRs0Z0SGCC-27" style="edgeStyle=none;shape=connector;rounded=0;orthogonalLoop=1;jettySize=auto;html=1;exitX=0;exitY=0.5;exitDx=0;exitDy=0;entryX=1;entryY=0.5;entryDx=0;entryDy=0;strokeColor=#36393d;align=center;verticalAlign=middle;fontFamily=Helvetica;fontSize=11;fontColor=default;labelBackgroundColor=none;startFill=0;endArrow=none;fillColor=#cce5ff;" parent="1" source="8ZeVd58lSpMRs0Z0SGCC-26" target="8ZeVd58lSpMRs0Z0SGCC-3" edge="1">
          <mxGeometry relative="1" as="geometry" />
        </mxCell>
        <mxCell id="8ZeVd58lSpMRs0Z0SGCC-26" value="password" style="ellipse;whiteSpace=wrap;html=1;align=center;fontFamily=Helvetica;fontSize=11;labelBackgroundColor=none;fillColor=#f5f5f5;strokeColor=#666666;fontColor=#333333;" parent="1" vertex="1">
          <mxGeometry x="-390" y="40" width="100" height="40" as="geometry" />
        </mxCell>
        <mxCell id="8ZeVd58lSpMRs0Z0SGCC-30" style="edgeStyle=none;shape=connector;rounded=0;orthogonalLoop=1;jettySize=auto;html=1;exitX=0.5;exitY=1;exitDx=0;exitDy=0;entryX=0.5;entryY=0;entryDx=0;entryDy=0;strokeColor=#36393d;align=center;verticalAlign=middle;fontFamily=Helvetica;fontSize=11;fontColor=default;labelBackgroundColor=none;startFill=0;endArrow=none;fillColor=#cce5ff;" parent="1" source="8ZeVd58lSpMRs0Z0SGCC-29" target="8ZeVd58lSpMRs0Z0SGCC-2" edge="1">
          <mxGeometry relative="1" as="geometry" />
        </mxCell>
        <mxCell id="8ZeVd58lSpMRs0Z0SGCC-29" value="status" style="ellipse;whiteSpace=wrap;html=1;align=center;fontFamily=Helvetica;fontSize=11;labelBackgroundColor=none;fillColor=#f5f5f5;strokeColor=#666666;fontColor=#333333;" parent="1" vertex="1">
          <mxGeometry x="110" y="170" width="100" height="40" as="geometry" />
        </mxCell>
        <mxCell id="8ZeVd58lSpMRs0Z0SGCC-31" value="Makes" style="shape=rhombus;perimeter=rhombusPerimeter;whiteSpace=wrap;html=1;align=center;fontFamily=Helvetica;fontSize=11;labelBackgroundColor=none;fillColor=#d5e8d4;strokeColor=#82b366;" parent="1" vertex="1">
          <mxGeometry x="-130" y="240" width="120" height="60" as="geometry" />
        </mxCell>
        <mxCell id="8ZeVd58lSpMRs0Z0SGCC-32" value="(0,N)" style="text;html=1;align=center;verticalAlign=middle;whiteSpace=wrap;rounded=0;fontFamily=Helvetica;fontSize=11;labelBackgroundColor=none;fillColor=none;strokeColor=none;fontColor=light-dark(#94d1ff, #ededed);" parent="1" vertex="1">
          <mxGeometry x="-240" y="240" width="60" height="30" as="geometry" />
        </mxCell>
        <mxCell id="8ZeVd58lSpMRs0Z0SGCC-34" value="(1,1)" style="text;html=1;align=center;verticalAlign=middle;whiteSpace=wrap;rounded=0;fontFamily=Helvetica;fontSize=11;labelBackgroundColor=none;fillColor=none;strokeColor=none;fontColor=light-dark(#94d1ff, #ededed);" parent="1" vertex="1">
          <mxGeometry x="50" y="240" width="60" height="30" as="geometry" />
        </mxCell>
        <mxCell id="8ZeVd58lSpMRs0Z0SGCC-35" value="For" style="shape=rhombus;perimeter=rhombusPerimeter;whiteSpace=wrap;html=1;align=center;fontFamily=Helvetica;fontSize=11;labelBackgroundColor=none;fillColor=#d5e8d4;strokeColor=#82b366;" parent="1" vertex="1">
          <mxGeometry x="300" y="240" width="120" height="60" as="geometry" />
        </mxCell>
        <mxCell id="8ZeVd58lSpMRs0Z0SGCC-36" value="(1,1)" style="text;html=1;align=center;verticalAlign=middle;whiteSpace=wrap;rounded=0;fontFamily=Helvetica;fontSize=11;labelBackgroundColor=none;fillColor=none;strokeColor=none;fontColor=light-dark(#94d1ff, #ededed);" parent="1" vertex="1">
          <mxGeometry x="210" y="270" width="60" height="30" as="geometry" />
        </mxCell>
        <mxCell id="8ZeVd58lSpMRs0Z0SGCC-37" value="(0,N)" style="text;html=1;align=center;verticalAlign=middle;whiteSpace=wrap;rounded=0;fontFamily=Helvetica;fontSize=11;labelBackgroundColor=none;fillColor=none;strokeColor=none;fontColor=light-dark(#94d1ff, #ededed);" parent="1" vertex="1">
          <mxGeometry x="440" y="270" width="60" height="30" as="geometry" />
        </mxCell>
        <mxCell id="8ZeVd58lSpMRs0Z0SGCC-38" value="arrival_time" style="ellipse;whiteSpace=wrap;html=1;align=center;fontFamily=Helvetica;fontSize=11;labelBackgroundColor=none;fillColor=#f5f5f5;strokeColor=#666666;fontColor=#333333;" parent="1" vertex="1">
          <mxGeometry x="400" y="410" width="100" height="40" as="geometry" />
        </mxCell>
        <mxCell id="8ZeVd58lSpMRs0Z0SGCC-99" style="edgeStyle=none;shape=connector;rounded=0;orthogonalLoop=1;jettySize=auto;html=1;exitX=1;exitY=0.5;exitDx=0;exitDy=0;entryX=0;entryY=0.5;entryDx=0;entryDy=0;strokeColor=#36393d;align=center;verticalAlign=middle;fontFamily=Helvetica;fontSize=11;fontColor=default;labelBackgroundColor=none;startFill=0;endArrow=none;fillColor=#cce5ff;" parent="1" source="8ZeVd58lSpMRs0Z0SGCC-40" target="8ZeVd58lSpMRs0Z0SGCC-43" edge="1">
          <mxGeometry relative="1" as="geometry" />
        </mxCell>
        <mxCell id="8ZeVd58lSpMRs0Z0SGCC-40" value="max_seats" style="ellipse;whiteSpace=wrap;html=1;align=center;fontFamily=Helvetica;fontSize=11;labelBackgroundColor=none;fillColor=#f5f5f5;strokeColor=#666666;fontColor=#333333;" parent="1" vertex="1">
          <mxGeometry x="400" y="460" width="100" height="40" as="geometry" />
        </mxCell>
        <mxCell id="8ZeVd58lSpMRs0Z0SGCC-41" value="company_name" style="ellipse;whiteSpace=wrap;html=1;align=center;fontFamily=Helvetica;fontSize=11;labelBackgroundColor=none;fillColor=#f5f5f5;strokeColor=#666666;fontColor=#333333;" parent="1" vertex="1">
          <mxGeometry x="600" y="310" width="100" height="40" as="geometry" />
        </mxCell>
        <mxCell id="8ZeVd58lSpMRs0Z0SGCC-42" value="status" style="ellipse;whiteSpace=wrap;html=1;align=center;fontFamily=Helvetica;fontSize=11;labelBackgroundColor=none;fillColor=#f5f5f5;strokeColor=#666666;fontColor=#333333;" parent="1" vertex="1">
          <mxGeometry x="600" y="360" width="100" height="40" as="geometry" />
        </mxCell>
        <mxCell id="8ZeVd58lSpMRs0Z0SGCC-43" value="free_seats" style="ellipse;whiteSpace=wrap;html=1;align=center;fontFamily=Helvetica;fontSize=11;labelBackgroundColor=none;fillColor=#f5f5f5;strokeColor=#666666;fontColor=#333333;" parent="1" vertex="1">
          <mxGeometry x="600" y="460" width="100" height="40" as="geometry" />
        </mxCell>
        <mxCell id="8ZeVd58lSpMRs0Z0SGCC-101" style="edgeStyle=none;shape=connector;rounded=0;orthogonalLoop=1;jettySize=auto;html=1;exitX=1;exitY=0.5;exitDx=0;exitDy=0;entryX=0;entryY=0.5;entryDx=0;entryDy=0;strokeColor=#36393d;align=center;verticalAlign=middle;fontFamily=Helvetica;fontSize=11;fontColor=default;labelBackgroundColor=none;startFill=0;endArrow=none;fillColor=#cce5ff;" parent="1" source="8ZeVd58lSpMRs0Z0SGCC-44" target="8ZeVd58lSpMRs0Z0SGCC-42" edge="1">
          <mxGeometry relative="1" as="geometry" />
        </mxCell>
        <mxCell id="8ZeVd58lSpMRs0Z0SGCC-44" value="date" style="ellipse;whiteSpace=wrap;html=1;align=center;fontFamily=Helvetica;fontSize=11;labelBackgroundColor=none;fillColor=#f5f5f5;strokeColor=#666666;fontColor=#333333;" parent="1" vertex="1">
          <mxGeometry x="400" y="360" width="100" height="40" as="geometry" />
        </mxCell>
        <mxCell id="8ZeVd58lSpMRs0Z0SGCC-102" style="edgeStyle=none;shape=connector;rounded=0;orthogonalLoop=1;jettySize=auto;html=1;exitX=1;exitY=0.5;exitDx=0;exitDy=0;entryX=0;entryY=0.5;entryDx=0;entryDy=0;strokeColor=#36393d;align=center;verticalAlign=middle;fontFamily=Helvetica;fontSize=11;fontColor=default;labelBackgroundColor=none;startFill=0;endArrow=none;fillColor=#cce5ff;" parent="1" source="8ZeVd58lSpMRs0Z0SGCC-45" target="8ZeVd58lSpMRs0Z0SGCC-41" edge="1">
          <mxGeometry relative="1" as="geometry" />
        </mxCell>
        <mxCell id="8ZeVd58lSpMRs0Z0SGCC-45" value="id" style="ellipse;whiteSpace=wrap;html=1;align=center;fontFamily=Helvetica;fontSize=11;labelBackgroundColor=none;fillColor=#f5f5f5;strokeColor=#666666;fontColor=#333333;" parent="1" vertex="1">
          <mxGeometry x="400" y="310" width="100" height="40" as="geometry" />
        </mxCell>
        <mxCell id="8ZeVd58lSpMRs0Z0SGCC-100" style="edgeStyle=none;shape=connector;rounded=0;orthogonalLoop=1;jettySize=auto;html=1;exitX=0;exitY=0.5;exitDx=0;exitDy=0;entryX=1;entryY=0.5;entryDx=0;entryDy=0;strokeColor=#36393d;align=center;verticalAlign=middle;fontFamily=Helvetica;fontSize=11;fontColor=default;labelBackgroundColor=none;startFill=0;endArrow=none;fillColor=#cce5ff;" parent="1" source="8ZeVd58lSpMRs0Z0SGCC-46" target="8ZeVd58lSpMRs0Z0SGCC-38" edge="1">
          <mxGeometry relative="1" as="geometry" />
        </mxCell>
        <mxCell id="8ZeVd58lSpMRs0Z0SGCC-46" value="departure_time" style="ellipse;whiteSpace=wrap;html=1;align=center;fontFamily=Helvetica;fontSize=11;labelBackgroundColor=none;fillColor=#f5f5f5;strokeColor=#666666;fontColor=#333333;" parent="1" vertex="1">
          <mxGeometry x="600" y="410" width="100" height="40" as="geometry" />
        </mxCell>
        <mxCell id="8ZeVd58lSpMRs0Z0SGCC-48" value="Takes" style="shape=rhombus;perimeter=rhombusPerimeter;whiteSpace=wrap;html=1;align=center;fontFamily=Helvetica;fontSize=11;labelBackgroundColor=none;fillColor=#d5e8d4;strokeColor=#82b366;" parent="1" vertex="1">
          <mxGeometry x="490" y="130" width="120" height="60" as="geometry" />
        </mxCell>
        <mxCell id="8ZeVd58lSpMRs0Z0SGCC-49" value="SSN" style="ellipse;whiteSpace=wrap;html=1;align=center;fontFamily=Helvetica;fontSize=11;labelBackgroundColor=none;fillColor=#f5f5f5;strokeColor=#666666;fontColor=#333333;" parent="1" vertex="1">
          <mxGeometry x="370" y="-30" width="100" height="40" as="geometry" />
        </mxCell>
        <mxCell id="8ZeVd58lSpMRs0Z0SGCC-50" value="ticket_number" style="ellipse;whiteSpace=wrap;html=1;align=center;fontFamily=Helvetica;fontSize=11;labelBackgroundColor=none;fillColor=#f5f5f5;strokeColor=#666666;fontColor=#333333;" parent="1" vertex="1">
          <mxGeometry x="630" y="-30" width="100" height="40" as="geometry" />
        </mxCell>
        <mxCell id="8ZeVd58lSpMRs0Z0SGCC-90" style="edgeStyle=none;shape=connector;rounded=0;orthogonalLoop=1;jettySize=auto;html=1;exitX=0;exitY=0;exitDx=0;exitDy=0;entryX=0.5;entryY=1;entryDx=0;entryDy=0;strokeColor=#36393d;align=center;verticalAlign=middle;fontFamily=Helvetica;fontSize=11;fontColor=default;labelBackgroundColor=none;startFill=0;endArrow=none;fillColor=#cce5ff;" parent="1" source="8ZeVd58lSpMRs0Z0SGCC-51" target="8ZeVd58lSpMRs0Z0SGCC-52" edge="1">
          <mxGeometry relative="1" as="geometry" />
        </mxCell>
        <mxCell id="8ZeVd58lSpMRs0Z0SGCC-91" style="edgeStyle=none;shape=connector;rounded=0;orthogonalLoop=1;jettySize=auto;html=1;exitX=1;exitY=0;exitDx=0;exitDy=0;entryX=0.5;entryY=1;entryDx=0;entryDy=0;strokeColor=#36393d;align=center;verticalAlign=middle;fontFamily=Helvetica;fontSize=11;fontColor=default;labelBackgroundColor=none;startFill=0;endArrow=none;fillColor=#cce5ff;" parent="1" source="8ZeVd58lSpMRs0Z0SGCC-51" target="8ZeVd58lSpMRs0Z0SGCC-88" edge="1">
          <mxGeometry relative="1" as="geometry" />
        </mxCell>
        <mxCell id="8ZeVd58lSpMRs0Z0SGCC-51" value="name" style="ellipse;whiteSpace=wrap;html=1;align=center;fontFamily=Helvetica;fontSize=11;labelBackgroundColor=none;fillColor=#f5f5f5;strokeColor=#666666;fontColor=#333333;" parent="1" vertex="1">
          <mxGeometry x="440" y="-80" width="100" height="40" as="geometry" />
        </mxCell>
        <mxCell id="8ZeVd58lSpMRs0Z0SGCC-52" value="firstname" style="ellipse;whiteSpace=wrap;html=1;align=center;fontFamily=Helvetica;fontSize=11;labelBackgroundColor=none;fillColor=#f5f5f5;strokeColor=#666666;fontColor=#333333;" parent="1" vertex="1">
          <mxGeometry x="380" y="-130" width="100" height="40" as="geometry" />
        </mxCell>
        <mxCell id="8ZeVd58lSpMRs0Z0SGCC-87" style="edgeStyle=none;shape=connector;rounded=0;orthogonalLoop=1;jettySize=auto;html=1;exitX=1;exitY=0.5;exitDx=0;exitDy=0;entryX=0;entryY=0.5;entryDx=0;entryDy=0;strokeColor=#36393d;align=center;verticalAlign=middle;fontFamily=Helvetica;fontSize=11;fontColor=default;labelBackgroundColor=none;startFill=0;endArrow=none;fillColor=#cce5ff;" parent="1" source="8ZeVd58lSpMRs0Z0SGCC-53" target="8ZeVd58lSpMRs0Z0SGCC-6" edge="1">
          <mxGeometry relative="1" as="geometry" />
        </mxCell>
        <mxCell id="8ZeVd58lSpMRs0Z0SGCC-53" value="seat" style="ellipse;whiteSpace=wrap;html=1;align=center;fontFamily=Helvetica;fontSize=11;labelBackgroundColor=none;fillColor=#f5f5f5;strokeColor=#666666;fontColor=#333333;" parent="1" vertex="1">
          <mxGeometry x="370" y="40" width="100" height="40" as="geometry" />
        </mxCell>
        <mxCell id="8ZeVd58lSpMRs0Z0SGCC-59" value="(0,N)&lt;span style=&quot;font-family: monospace; font-size: 0px; text-align: start; text-wrap-mode: nowrap;&quot;&gt;%3CmxGraphModel%3E%3Croot%3E%3CmxCell%20id%3D%220%22%2F%3E%3CmxCell%20id%3D%221%22%20parent%3D%220%22%2F%3E%3CmxCell%20id%3D%222%22%20value%3D%22(0%2CN)%22%20style%3D%22text%3Bhtml%3D1%3Balign%3Dcenter%3BverticalAlign%3Dmiddle%3BwhiteSpace%3Dwrap%3Brounded%3D0%3BfontFamily%3DHelvetica%3BfontSize%3D11%3BfontColor%3Ddefault%3BlabelBackgroundColor%3Dnone%3B%22%20vertex%3D%221%22%20parent%3D%221%22%3E%3CmxGeometry%20x%3D%22440%22%20y%3D%22240%22%20width%3D%2260%22%20height%3D%2230%22%20as%3D%22geometry%22%2F%3E%3C%2FmxCell%3E%3C%2Froot%3E%3C%2FmxGraphModel%3E&lt;/span&gt;" style="text;html=1;align=center;verticalAlign=middle;whiteSpace=wrap;rounded=0;fontFamily=Helvetica;fontSize=11;labelBackgroundColor=none;fillColor=none;strokeColor=none;fontColor=light-dark(#94d1ff, #ededed);" parent="1" vertex="1">
          <mxGeometry x="550" y="220" width="60" height="30" as="geometry" />
        </mxCell>
        <mxCell id="8ZeVd58lSpMRs0Z0SGCC-60" value="(1,1)" style="text;html=1;align=center;verticalAlign=middle;whiteSpace=wrap;rounded=0;fontFamily=Helvetica;fontSize=11;labelBackgroundColor=none;fillColor=none;strokeColor=none;fontColor=light-dark(#94d1ff, #ededed);" parent="1" vertex="1">
          <mxGeometry x="550" y="80" width="60" height="30" as="geometry" />
        </mxCell>
        <mxCell id="8ZeVd58lSpMRs0Z0SGCC-64" value="Has" style="shape=rhombus;perimeter=rhombusPerimeter;whiteSpace=wrap;html=1;align=center;fontFamily=Helvetica;fontSize=11;labelBackgroundColor=none;fillColor=#d5e8d4;strokeColor=#82b366;" parent="1" vertex="1">
          <mxGeometry x="680" y="30" width="120" height="60" as="geometry" />
        </mxCell>
        <mxCell id="8ZeVd58lSpMRs0Z0SGCC-72" style="edgeStyle=none;shape=connector;rounded=0;orthogonalLoop=1;jettySize=auto;html=1;exitX=1;exitY=0.5;exitDx=0;exitDy=0;entryX=0;entryY=0.5;entryDx=0;entryDy=0;strokeColor=#36393d;align=center;verticalAlign=middle;fontFamily=Helvetica;fontSize=11;fontColor=default;labelBackgroundColor=none;startFill=0;endArrow=none;fillColor=#cce5ff;" parent="1" source="8ZeVd58lSpMRs0Z0SGCC-65" target="8ZeVd58lSpMRs0Z0SGCC-70" edge="1">
          <mxGeometry relative="1" as="geometry" />
        </mxCell>
        <mxCell id="8ZeVd58lSpMRs0Z0SGCC-74" style="edgeStyle=none;shape=connector;rounded=0;orthogonalLoop=1;jettySize=auto;html=1;exitX=1;exitY=1;exitDx=0;exitDy=0;entryX=0;entryY=0.5;entryDx=0;entryDy=0;strokeColor=#36393d;align=center;verticalAlign=middle;fontFamily=Helvetica;fontSize=11;fontColor=default;labelBackgroundColor=none;startFill=0;endArrow=none;fillColor=#cce5ff;" parent="1" source="8ZeVd58lSpMRs0Z0SGCC-65" target="8ZeVd58lSpMRs0Z0SGCC-71" edge="1">
          <mxGeometry relative="1" as="geometry" />
        </mxCell>
        <mxCell id="8ZeVd58lSpMRs0Z0SGCC-65" value="Luggage" style="whiteSpace=wrap;html=1;align=center;fontFamily=Helvetica;fontSize=11;labelBackgroundColor=none;fillColor=#cce5ff;strokeColor=#36393d;" parent="1" vertex="1">
          <mxGeometry x="880" y="40" width="100" height="40" as="geometry" />
        </mxCell>
        <mxCell id="8ZeVd58lSpMRs0Z0SGCC-67" value="(0,N)&lt;span style=&quot;font-family: monospace; font-size: 0px; text-align: start; text-wrap-mode: nowrap;&quot;&gt;%3CmxGraphModel%3E%3Croot%3E%3CmxCell%20id%3D%220%22%2F%3E%3CmxCell%20id%3D%221%22%20parent%3D%220%22%2F%3E%3CmxCell%20id%3D%222%22%20value%3D%22(1%2C1)%22%20style%3D%22text%3Bhtml%3D1%3Balign%3Dcenter%3BverticalAlign%3Dmiddle%3BwhiteSpace%3Dwrap%3Brounded%3D0%3BfontFamily%3DHelvetica%3BfontSize%3D11%3BfontColor%3Ddefault%3BlabelBackgroundColor%3Dnone%3B%22%20vertex%3D%221%22%20parent%3D%221%22%3E%3CmxGeometry%20x%3D%22550%22%20y%3D%2280%22%20width%3D%2260%22%20height%3D%2230%22%20as%3D%22geometry%22%2F%3E%3C%2FmxCell%3E%3C%2Froot%3E%3C%2FmxGraphModel%3E&lt;/span&gt;" style="text;html=1;align=center;verticalAlign=middle;whiteSpace=wrap;rounded=0;fontFamily=Helvetica;fontSize=11;labelBackgroundColor=none;fillColor=none;strokeColor=none;fontColor=light-dark(#94d1ff, #ededed);" parent="1" vertex="1">
          <mxGeometry x="600" y="30" width="60" height="30" as="geometry" />
        </mxCell>
        <mxCell id="8ZeVd58lSpMRs0Z0SGCC-68" value="(1,1)" style="text;html=1;align=center;verticalAlign=middle;whiteSpace=wrap;rounded=0;fontFamily=Helvetica;fontSize=11;labelBackgroundColor=none;fillColor=none;strokeColor=none;fontColor=light-dark(#94d1ff, #ededed);" parent="1" vertex="1">
          <mxGeometry x="820" y="30" width="60" height="30" as="geometry" />
        </mxCell>
        <mxCell id="8ZeVd58lSpMRs0Z0SGCC-69" value="id" style="ellipse;whiteSpace=wrap;html=1;align=center;fontFamily=Helvetica;fontSize=11;labelBackgroundColor=none;fillColor=#f5f5f5;strokeColor=#666666;fontColor=#333333;" parent="1" vertex="1">
          <mxGeometry x="1020" y="-20" width="100" height="40" as="geometry" />
        </mxCell>
        <mxCell id="8ZeVd58lSpMRs0Z0SGCC-70" value="type" style="ellipse;whiteSpace=wrap;html=1;align=center;fontFamily=Helvetica;fontSize=11;labelBackgroundColor=none;fillColor=#f5f5f5;strokeColor=#666666;fontColor=#333333;" parent="1" vertex="1">
          <mxGeometry x="1020" y="40" width="100" height="40" as="geometry" />
        </mxCell>
        <mxCell id="8ZeVd58lSpMRs0Z0SGCC-71" value="status" style="ellipse;whiteSpace=wrap;html=1;align=center;fontFamily=Helvetica;fontSize=11;labelBackgroundColor=none;fillColor=#f5f5f5;strokeColor=#666666;fontColor=#333333;" parent="1" vertex="1">
          <mxGeometry x="1020" y="100" width="100" height="40" as="geometry" />
        </mxCell>
        <mxCell id="8ZeVd58lSpMRs0Z0SGCC-73" style="edgeStyle=none;shape=connector;rounded=0;orthogonalLoop=1;jettySize=auto;html=1;exitX=1;exitY=0;exitDx=0;exitDy=0;strokeColor=#36393d;align=center;verticalAlign=middle;fontFamily=Helvetica;fontSize=11;fontColor=default;labelBackgroundColor=none;startFill=0;endArrow=none;entryX=0;entryY=0.5;entryDx=0;entryDy=0;fillColor=#cce5ff;" parent="1" source="8ZeVd58lSpMRs0Z0SGCC-65" target="8ZeVd58lSpMRs0Z0SGCC-69" edge="1">
          <mxGeometry relative="1" as="geometry">
            <mxPoint x="980" as="targetPoint" />
          </mxGeometry>
        </mxCell>
        <mxCell id="8ZeVd58lSpMRs0Z0SGCC-75" value="arrival_delay" style="ellipse;whiteSpace=wrap;html=1;align=center;fontFamily=Helvetica;fontSize=11;labelBackgroundColor=none;fillColor=#f5f5f5;strokeColor=#666666;fontColor=#333333;" parent="1" vertex="1">
          <mxGeometry x="900" y="200" width="100" height="40" as="geometry" />
        </mxCell>
        <mxCell id="8ZeVd58lSpMRs0Z0SGCC-76" value="origin" style="ellipse;whiteSpace=wrap;html=1;align=center;fontFamily=Helvetica;fontSize=11;labelBackgroundColor=none;fillColor=#f5f5f5;strokeColor=#666666;fontColor=#333333;" parent="1" vertex="1">
          <mxGeometry x="900" y="120" width="100" height="40" as="geometry" />
        </mxCell>
        <mxCell id="8ZeVd58lSpMRs0Z0SGCC-80" value="departure_delay" style="ellipse;whiteSpace=wrap;html=1;align=center;fontFamily=Helvetica;fontSize=11;labelBackgroundColor=none;fillColor=#f5f5f5;strokeColor=#666666;fontColor=#333333;" parent="1" vertex="1">
          <mxGeometry x="900" y="380" width="100" height="40" as="geometry" />
        </mxCell>
        <mxCell id="8ZeVd58lSpMRs0Z0SGCC-81" value="destination" style="ellipse;whiteSpace=wrap;html=1;align=center;fontFamily=Helvetica;fontSize=11;labelBackgroundColor=none;fillColor=#f5f5f5;strokeColor=#666666;fontColor=#333333;" parent="1" vertex="1">
          <mxGeometry x="900" y="300" width="100" height="40" as="geometry" />
        </mxCell>
        <mxCell id="8ZeVd58lSpMRs0Z0SGCC-84" value="id" style="ellipse;whiteSpace=wrap;html=1;align=center;fontFamily=Helvetica;fontSize=11;labelBackgroundColor=none;fillColor=#f5f5f5;strokeColor=#666666;fontColor=#333333;" parent="1" vertex="1">
          <mxGeometry x="770" y="580" width="100" height="40" as="geometry" />
        </mxCell>
        <mxCell id="8ZeVd58lSpMRs0Z0SGCC-86" value="From" style="shape=rhombus;perimeter=rhombusPerimeter;whiteSpace=wrap;html=1;align=center;fontFamily=Helvetica;fontSize=11;labelBackgroundColor=none;fillColor=#d5e8d4;strokeColor=#82b366;" parent="1" vertex="1">
          <mxGeometry x="760" y="415" width="120" height="60" as="geometry" />
        </mxCell>
        <mxCell id="8ZeVd58lSpMRs0Z0SGCC-88" value="lastname" style="ellipse;whiteSpace=wrap;html=1;align=center;fontFamily=Helvetica;fontSize=11;labelBackgroundColor=none;fillColor=#f5f5f5;strokeColor=#666666;fontColor=#333333;" parent="1" vertex="1">
          <mxGeometry x="500" y="-130" width="100" height="40" as="geometry" />
        </mxCell>
        <mxCell id="8ZeVd58lSpMRs0Z0SGCC-95" value="(0,1)" style="text;html=1;align=center;verticalAlign=middle;whiteSpace=wrap;rounded=0;fontFamily=Helvetica;fontSize=11;labelBackgroundColor=none;fillColor=none;strokeColor=none;fontColor=light-dark(#94d1ff, #ededed);" parent="1" vertex="1">
          <mxGeometry x="760" y="380" width="60" height="30" as="geometry" />
        </mxCell>
        <mxCell id="8ZeVd58lSpMRs0Z0SGCC-96" value="(0,N)" style="text;html=1;align=center;verticalAlign=middle;whiteSpace=wrap;rounded=0;fontFamily=Helvetica;fontSize=11;labelBackgroundColor=none;fillColor=none;strokeColor=none;fontColor=light-dark(#94d1ff, #ededed);" parent="1" vertex="1">
          <mxGeometry x="760" y="480" width="60" height="30" as="geometry" />
        </mxCell>
        <mxCell id="yvve5Ez18JVlXI8Y-3o4-3" value="Includes" style="shape=rhombus;perimeter=rhombusPerimeter;whiteSpace=wrap;html=1;align=center;fontFamily=Helvetica;fontSize=11;labelBackgroundColor=none;fillColor=#d5e8d4;strokeColor=#82b366;" parent="1" vertex="1">
          <mxGeometry x="300" y="130" width="120" height="60" as="geometry" />
        </mxCell>
        <mxCell id="yvve5Ez18JVlXI8Y-3o4-5" value="checked in" style="ellipse;whiteSpace=wrap;html=1;align=center;fontFamily=Helvetica;fontSize=11;labelBackgroundColor=none;fillColor=#f5f5f5;strokeColor=#666666;fontColor=#333333;" parent="1" vertex="1">
          <mxGeometry x="560" y="-80" width="100" height="40" as="geometry" />
        </mxCell>
        <mxCell id="yvve5Ez18JVlXI8Y-3o4-7" value="(0,N)" style="text;html=1;align=center;verticalAlign=middle;whiteSpace=wrap;rounded=0;fontFamily=Helvetica;fontSize=11;labelBackgroundColor=none;fillColor=none;strokeColor=none;fontColor=light-dark(#94d1ff, #ededed);" parent="1" vertex="1">
          <mxGeometry x="200" y="240" width="60" height="30" as="geometry" />
        </mxCell>
        <mxCell id="yvve5Ez18JVlXI8Y-3o4-8" value="(1,1)" style="text;html=1;align=center;verticalAlign=middle;whiteSpace=wrap;rounded=0;fontFamily=Helvetica;fontSize=11;labelBackgroundColor=none;fillColor=none;strokeColor=none;fontColor=light-dark(#94d1ff, #ededed);" parent="1" vertex="1">
          <mxGeometry x="470" y="80" width="60" height="30" as="geometry" />
        </mxCell>
        <mxCell id="yvve5Ez18JVlXI8Y-3o4-10" style="edgeStyle=orthogonalEdgeStyle;shape=connector;rounded=0;orthogonalLoop=1;jettySize=auto;html=1;exitX=0;exitY=0.5;exitDx=0;exitDy=0;entryX=1;entryY=0.5;entryDx=0;entryDy=0;strokeColor=#36393d;align=center;verticalAlign=middle;fontFamily=Helvetica;fontSize=11;fontColor=default;labelBackgroundColor=none;startFill=0;endArrow=none;fillColor=#cce5ff;" parent="1" source="yvve5Ez18JVlXI8Y-3o4-13" target="yvve5Ez18JVlXI8Y-3o4-16" edge="1">
          <mxGeometry relative="1" as="geometry" />
        </mxCell>
        <mxCell id="yvve5Ez18JVlXI8Y-3o4-12" style="edgeStyle=none;shape=connector;rounded=0;orthogonalLoop=1;jettySize=auto;html=1;exitX=0.5;exitY=1;exitDx=0;exitDy=0;strokeColor=#36393d;align=center;verticalAlign=middle;fontFamily=Helvetica;fontSize=11;fontColor=default;labelBackgroundColor=none;startFill=0;endArrow=none;fillColor=#cce5ff;entryX=0.5;entryY=0;entryDx=0;entryDy=0;" parent="1" source="yvve5Ez18JVlXI8Y-3o4-13" target="yvve5Ez18JVlXI8Y-3o4-107" edge="1">
          <mxGeometry relative="1" as="geometry">
            <mxPoint x="390" y="1430" as="targetPoint" />
          </mxGeometry>
        </mxCell>
        <mxCell id="yvve5Ez18JVlXI8Y-3o4-13" value="Flight" style="whiteSpace=wrap;html=1;align=center;fillColor=#cce5ff;strokeColor=#36393d;labelBackgroundColor=none;" parent="1" vertex="1">
          <mxGeometry x="340" y="1150" width="100" height="40" as="geometry" />
        </mxCell>
        <mxCell id="yvve5Ez18JVlXI8Y-3o4-14" style="edgeStyle=orthogonalEdgeStyle;shape=connector;rounded=0;orthogonalLoop=1;jettySize=auto;html=1;exitX=0;exitY=0.5;exitDx=0;exitDy=0;entryX=1;entryY=0.5;entryDx=0;entryDy=0;strokeColor=#36393d;align=center;verticalAlign=middle;fontFamily=Helvetica;fontSize=11;fontColor=default;labelBackgroundColor=none;startFill=0;endArrow=none;fillColor=#cce5ff;" parent="1" source="yvve5Ez18JVlXI8Y-3o4-16" target="kwWxKuvhRkfxEUBwmgUF-8" edge="1">
          <mxGeometry relative="1" as="geometry">
            <mxPoint x="-400" y="1170" as="targetPoint" />
          </mxGeometry>
        </mxCell>
        <mxCell id="yvve5Ez18JVlXI8Y-3o4-15" style="rounded=0;orthogonalLoop=1;jettySize=auto;html=1;exitX=1;exitY=0;exitDx=0;exitDy=0;entryX=0;entryY=1;entryDx=0;entryDy=0;startArrow=none;startFill=0;endArrow=none;endFill=0;" parent="1" source="yvve5Ez18JVlXI8Y-3o4-16" target="yvve5Ez18JVlXI8Y-3o4-27" edge="1">
          <mxGeometry relative="1" as="geometry">
            <mxPoint x="310" y="1010" as="targetPoint" />
          </mxGeometry>
        </mxCell>
        <mxCell id="yvve5Ez18JVlXI8Y-3o4-16" value="Booking" style="whiteSpace=wrap;html=1;align=center;fillColor=#cce5ff;strokeColor=#36393d;labelBackgroundColor=none;" parent="1" vertex="1">
          <mxGeometry x="-50" y="1150" width="100" height="40" as="geometry" />
        </mxCell>
        <mxCell id="yvve5Ez18JVlXI8Y-3o4-103" style="edgeStyle=none;shape=connector;rounded=0;orthogonalLoop=1;jettySize=auto;html=1;exitX=1;exitY=1;exitDx=0;exitDy=0;entryX=0.5;entryY=0;entryDx=0;entryDy=0;strokeColor=default;align=center;verticalAlign=middle;fontFamily=Helvetica;fontSize=11;fontColor=default;labelBackgroundColor=default;startFill=0;endArrow=none;" parent="1" source="yvve5Ez18JVlXI8Y-3o4-19" target="yvve5Ez18JVlXI8Y-3o4-46" edge="1">
          <mxGeometry relative="1" as="geometry" />
        </mxCell>
        <mxCell id="yvve5Ez18JVlXI8Y-3o4-104" style="edgeStyle=none;shape=connector;rounded=0;orthogonalLoop=1;jettySize=auto;html=1;exitX=0;exitY=1;exitDx=0;exitDy=0;entryX=0.5;entryY=0;entryDx=0;entryDy=0;strokeColor=default;align=center;verticalAlign=middle;fontFamily=Helvetica;fontSize=11;fontColor=default;labelBackgroundColor=default;startFill=0;endArrow=none;" parent="1" source="yvve5Ez18JVlXI8Y-3o4-19" target="yvve5Ez18JVlXI8Y-3o4-44" edge="1">
          <mxGeometry relative="1" as="geometry" />
        </mxCell>
        <mxCell id="kwWxKuvhRkfxEUBwmgUF-15" style="edgeStyle=orthogonalEdgeStyle;rounded=0;orthogonalLoop=1;jettySize=auto;html=1;exitX=0.5;exitY=1;exitDx=0;exitDy=0;entryX=0.5;entryY=0;entryDx=0;entryDy=0;endArrow=none;startFill=0;" edge="1" parent="1" source="yvve5Ez18JVlXI8Y-3o4-19" target="kwWxKuvhRkfxEUBwmgUF-14">
          <mxGeometry relative="1" as="geometry" />
        </mxCell>
        <mxCell id="yvve5Ez18JVlXI8Y-3o4-19" value="Admin" style="whiteSpace=wrap;html=1;align=center;fillColor=#cce5ff;strokeColor=#36393d;labelBackgroundColor=none;" parent="1" vertex="1">
          <mxGeometry x="-500" y="900" width="100" height="40" as="geometry" />
        </mxCell>
        <mxCell id="yvve5Ez18JVlXI8Y-3o4-21" style="edgeStyle=orthogonalEdgeStyle;rounded=0;orthogonalLoop=1;jettySize=auto;html=1;exitX=0.5;exitY=1;exitDx=0;exitDy=0;entryX=0.5;entryY=0;entryDx=0;entryDy=0;endArrow=none;startFill=0;fillColor=#cce5ff;strokeColor=#36393d;labelBackgroundColor=none;" parent="1" source="yvve5Ez18JVlXI8Y-3o4-27" target="yvve5Ez18JVlXI8Y-3o4-13" edge="1">
          <mxGeometry relative="1" as="geometry" />
        </mxCell>
        <mxCell id="yvve5Ez18JVlXI8Y-3o4-22" style="edgeStyle=none;shape=connector;rounded=0;orthogonalLoop=1;jettySize=auto;html=1;exitX=1;exitY=0;exitDx=0;exitDy=0;entryX=0;entryY=1;entryDx=0;entryDy=0;strokeColor=#36393d;align=center;verticalAlign=middle;fontFamily=Helvetica;fontSize=11;fontColor=default;labelBackgroundColor=none;startFill=0;endArrow=none;fillColor=#cce5ff;" parent="1" source="yvve5Ez18JVlXI8Y-3o4-27" target="yvve5Ez18JVlXI8Y-3o4-69" edge="1">
          <mxGeometry relative="1" as="geometry" />
        </mxCell>
        <mxCell id="yvve5Ez18JVlXI8Y-3o4-23" style="edgeStyle=none;shape=connector;rounded=0;orthogonalLoop=1;jettySize=auto;html=1;exitX=0.25;exitY=0;exitDx=0;exitDy=0;entryX=0.5;entryY=1;entryDx=0;entryDy=0;strokeColor=#36393d;align=center;verticalAlign=middle;fontFamily=Helvetica;fontSize=11;fontColor=default;labelBackgroundColor=none;startFill=0;endArrow=none;fillColor=#cce5ff;" parent="1" source="yvve5Ez18JVlXI8Y-3o4-27" target="yvve5Ez18JVlXI8Y-3o4-72" edge="1">
          <mxGeometry relative="1" as="geometry" />
        </mxCell>
        <mxCell id="yvve5Ez18JVlXI8Y-3o4-24" style="edgeStyle=none;shape=connector;rounded=0;orthogonalLoop=1;jettySize=auto;html=1;exitX=0;exitY=0;exitDx=0;exitDy=0;entryX=1;entryY=1;entryDx=0;entryDy=0;strokeColor=#36393d;align=center;verticalAlign=middle;fontFamily=Helvetica;fontSize=11;fontColor=default;labelBackgroundColor=none;startFill=0;endArrow=none;fillColor=#cce5ff;" parent="1" source="yvve5Ez18JVlXI8Y-3o4-27" target="yvve5Ez18JVlXI8Y-3o4-68" edge="1">
          <mxGeometry relative="1" as="geometry" />
        </mxCell>
        <mxCell id="yvve5Ez18JVlXI8Y-3o4-25" style="edgeStyle=none;shape=connector;rounded=0;orthogonalLoop=1;jettySize=auto;html=1;exitX=1;exitY=0.5;exitDx=0;exitDy=0;entryX=0;entryY=0.5;entryDx=0;entryDy=0;strokeColor=#36393d;align=center;verticalAlign=middle;fontFamily=Helvetica;fontSize=11;fontColor=default;labelBackgroundColor=none;startFill=0;endArrow=none;fillColor=#cce5ff;" parent="1" source="yvve5Ez18JVlXI8Y-3o4-27" target="yvve5Ez18JVlXI8Y-3o4-81" edge="1">
          <mxGeometry relative="1" as="geometry" />
        </mxCell>
        <mxCell id="yvve5Ez18JVlXI8Y-3o4-26" style="rounded=0;orthogonalLoop=1;jettySize=auto;html=1;exitX=0.75;exitY=0;exitDx=0;exitDy=0;entryX=0.5;entryY=1;entryDx=0;entryDy=0;endArrow=none;startFill=0;" parent="1" source="yvve5Ez18JVlXI8Y-3o4-27" target="yvve5Ez18JVlXI8Y-3o4-98" edge="1">
          <mxGeometry relative="1" as="geometry" />
        </mxCell>
        <mxCell id="yvve5Ez18JVlXI8Y-3o4-27" value="Passenger" style="whiteSpace=wrap;html=1;align=center;fillColor=#cce5ff;strokeColor=#36393d;labelBackgroundColor=none;" parent="1" vertex="1">
          <mxGeometry x="340" y="940" width="100" height="40" as="geometry" />
        </mxCell>
        <mxCell id="yvve5Ez18JVlXI8Y-3o4-31" style="edgeStyle=none;shape=connector;rounded=0;orthogonalLoop=1;jettySize=auto;html=1;exitX=1;exitY=0.5;exitDx=0;exitDy=0;entryX=0;entryY=0.5;entryDx=0;entryDy=0;strokeColor=#36393d;align=center;verticalAlign=middle;fontFamily=Helvetica;fontSize=11;fontColor=default;labelBackgroundColor=none;startFill=0;endArrow=none;fillColor=#cce5ff;" parent="1" source="yvve5Ez18JVlXI8Y-3o4-89" target="yvve5Ez18JVlXI8Y-3o4-88" edge="1">
          <mxGeometry relative="1" as="geometry">
            <mxPoint x="710" y="1100" as="sourcePoint" />
          </mxGeometry>
        </mxCell>
        <mxCell id="yvve5Ez18JVlXI8Y-3o4-34" style="edgeStyle=none;shape=connector;rounded=0;orthogonalLoop=1;jettySize=auto;html=1;exitX=1;exitY=0.5;exitDx=0;exitDy=0;entryX=0;entryY=0.5;entryDx=0;entryDy=0;strokeColor=#36393d;align=center;verticalAlign=middle;fontFamily=Helvetica;fontSize=11;fontColor=default;labelBackgroundColor=none;startFill=0;endArrow=none;fillColor=#cce5ff;" parent="1" source="yvve5Ez18JVlXI8Y-3o4-13" target="yvve5Ez18JVlXI8Y-3o4-93" edge="1">
          <mxGeometry relative="1" as="geometry">
            <mxPoint x="610" y="1110" as="sourcePoint" />
          </mxGeometry>
        </mxCell>
        <mxCell id="yvve5Ez18JVlXI8Y-3o4-41" style="edgeStyle=none;shape=connector;rounded=0;orthogonalLoop=1;jettySize=auto;html=1;exitX=1;exitY=0.5;exitDx=0;exitDy=0;entryX=0;entryY=0.5;entryDx=0;entryDy=0;strokeColor=#36393d;align=center;verticalAlign=middle;fontFamily=Helvetica;fontSize=11;fontColor=default;labelBackgroundColor=none;startFill=0;endArrow=none;fillColor=#cce5ff;" parent="1" source="yvve5Ez18JVlXI8Y-3o4-42" target="yvve5Ez18JVlXI8Y-3o4-92" edge="1">
          <mxGeometry relative="1" as="geometry" />
        </mxCell>
        <mxCell id="yvve5Ez18JVlXI8Y-3o4-42" value="Gate" style="whiteSpace=wrap;html=1;align=center;fillColor=#cce5ff;strokeColor=#36393d;labelBackgroundColor=none;" parent="1" vertex="1">
          <mxGeometry x="720" y="1150" width="100" height="40" as="geometry" />
        </mxCell>
        <mxCell id="yvve5Ez18JVlXI8Y-3o4-44" value="username" style="ellipse;whiteSpace=wrap;html=1;align=center;fontFamily=Helvetica;fontSize=11;labelBackgroundColor=none;fillColor=#f5f5f5;strokeColor=#666666;fontColor=#333333;" parent="1" vertex="1">
          <mxGeometry x="-600" y="980" width="100" height="40" as="geometry" />
        </mxCell>
        <mxCell id="yvve5Ez18JVlXI8Y-3o4-46" value="password" style="ellipse;whiteSpace=wrap;html=1;align=center;fontFamily=Helvetica;fontSize=11;labelBackgroundColor=none;fillColor=#f5f5f5;strokeColor=#666666;fontColor=#333333;" parent="1" vertex="1">
          <mxGeometry x="-400" y="980" width="100" height="40" as="geometry" />
        </mxCell>
        <mxCell id="yvve5Ez18JVlXI8Y-3o4-47" style="edgeStyle=none;shape=connector;rounded=0;orthogonalLoop=1;jettySize=auto;html=1;exitX=0.5;exitY=1;exitDx=0;exitDy=0;entryX=0.5;entryY=0;entryDx=0;entryDy=0;strokeColor=#36393d;align=center;verticalAlign=middle;fontFamily=Helvetica;fontSize=11;fontColor=default;labelBackgroundColor=none;startFill=0;endArrow=none;fillColor=#cce5ff;" parent="1" source="yvve5Ez18JVlXI8Y-3o4-48" target="yvve5Ez18JVlXI8Y-3o4-16" edge="1">
          <mxGeometry relative="1" as="geometry" />
        </mxCell>
        <mxCell id="yvve5Ez18JVlXI8Y-3o4-48" value="booking_status" style="ellipse;whiteSpace=wrap;html=1;align=center;fontFamily=Helvetica;fontSize=11;labelBackgroundColor=none;fillColor=#f5f5f5;strokeColor=#666666;fontColor=#333333;" parent="1" vertex="1">
          <mxGeometry x="-50" y="1070" width="100" height="40" as="geometry" />
        </mxCell>
        <mxCell id="yvve5Ez18JVlXI8Y-3o4-49" value="Makes" style="shape=rhombus;perimeter=rhombusPerimeter;whiteSpace=wrap;html=1;align=center;fontFamily=Helvetica;fontSize=11;labelBackgroundColor=none;fillColor=#d5e8d4;strokeColor=#82b366;" parent="1" vertex="1">
          <mxGeometry x="-290" y="1140" width="120" height="60" as="geometry" />
        </mxCell>
        <mxCell id="yvve5Ez18JVlXI8Y-3o4-50" value="(0,N)" style="text;html=1;align=center;verticalAlign=middle;whiteSpace=wrap;rounded=0;fontFamily=Helvetica;fontSize=11;labelBackgroundColor=none;fillColor=none;strokeColor=none;fontColor=light-dark(#94d1ff, #ededed);" parent="1" vertex="1">
          <mxGeometry x="-400" y="1140" width="60" height="30" as="geometry" />
        </mxCell>
        <mxCell id="yvve5Ez18JVlXI8Y-3o4-51" value="(1,1)" style="text;html=1;align=center;verticalAlign=middle;whiteSpace=wrap;rounded=0;fontFamily=Helvetica;fontSize=11;labelBackgroundColor=none;fillColor=none;strokeColor=none;fontColor=light-dark(#94d1ff, #ededed);" parent="1" vertex="1">
          <mxGeometry x="-110" y="1140" width="60" height="30" as="geometry" />
        </mxCell>
        <mxCell id="yvve5Ez18JVlXI8Y-3o4-52" value="For" style="shape=rhombus;perimeter=rhombusPerimeter;whiteSpace=wrap;html=1;align=center;fontFamily=Helvetica;fontSize=11;labelBackgroundColor=none;fillColor=#d5e8d4;strokeColor=#82b366;" parent="1" vertex="1">
          <mxGeometry x="140" y="1140" width="120" height="60" as="geometry" />
        </mxCell>
        <mxCell id="yvve5Ez18JVlXI8Y-3o4-53" value="(1,1)" style="text;html=1;align=center;verticalAlign=middle;whiteSpace=wrap;rounded=0;fontFamily=Helvetica;fontSize=11;labelBackgroundColor=none;fillColor=none;strokeColor=none;fontColor=light-dark(#94d1ff, #ededed);" parent="1" vertex="1">
          <mxGeometry x="50" y="1170" width="60" height="30" as="geometry" />
        </mxCell>
        <mxCell id="yvve5Ez18JVlXI8Y-3o4-54" value="(0,N)" style="text;html=1;align=center;verticalAlign=middle;whiteSpace=wrap;rounded=0;fontFamily=Helvetica;fontSize=11;labelBackgroundColor=none;fillColor=none;strokeColor=none;fontColor=light-dark(#94d1ff, #ededed);" parent="1" vertex="1">
          <mxGeometry x="280" y="1170" width="60" height="30" as="geometry" />
        </mxCell>
        <mxCell id="yvve5Ez18JVlXI8Y-3o4-55" value="arrival_time" style="ellipse;whiteSpace=wrap;html=1;align=center;fontFamily=Helvetica;fontSize=11;labelBackgroundColor=none;fillColor=#f5f5f5;strokeColor=#666666;fontColor=#333333;" parent="1" vertex="1">
          <mxGeometry x="240" y="1310" width="100" height="40" as="geometry" />
        </mxCell>
        <mxCell id="yvve5Ez18JVlXI8Y-3o4-56" style="edgeStyle=none;shape=connector;rounded=0;orthogonalLoop=1;jettySize=auto;html=1;exitX=1;exitY=0.5;exitDx=0;exitDy=0;entryX=0;entryY=0.5;entryDx=0;entryDy=0;strokeColor=#36393d;align=center;verticalAlign=middle;fontFamily=Helvetica;fontSize=11;fontColor=default;labelBackgroundColor=none;startFill=0;endArrow=none;fillColor=#cce5ff;" parent="1" source="yvve5Ez18JVlXI8Y-3o4-57" target="yvve5Ez18JVlXI8Y-3o4-60" edge="1">
          <mxGeometry relative="1" as="geometry" />
        </mxCell>
        <mxCell id="yvve5Ez18JVlXI8Y-3o4-57" value="max_seats" style="ellipse;whiteSpace=wrap;html=1;align=center;fontFamily=Helvetica;fontSize=11;labelBackgroundColor=none;fillColor=#f5f5f5;strokeColor=#666666;fontColor=#333333;" parent="1" vertex="1">
          <mxGeometry x="240" y="1360" width="100" height="40" as="geometry" />
        </mxCell>
        <mxCell id="yvve5Ez18JVlXI8Y-3o4-58" value="company_name" style="ellipse;whiteSpace=wrap;html=1;align=center;fontFamily=Helvetica;fontSize=11;labelBackgroundColor=none;fillColor=#f5f5f5;strokeColor=#666666;fontColor=#333333;" parent="1" vertex="1">
          <mxGeometry x="440" y="1210" width="100" height="40" as="geometry" />
        </mxCell>
        <mxCell id="yvve5Ez18JVlXI8Y-3o4-59" value="flight_status" style="ellipse;whiteSpace=wrap;html=1;align=center;fontFamily=Helvetica;fontSize=11;labelBackgroundColor=none;fillColor=#f5f5f5;strokeColor=#666666;fontColor=#333333;" parent="1" vertex="1">
          <mxGeometry x="440" y="1260" width="100" height="40" as="geometry" />
        </mxCell>
        <mxCell id="yvve5Ez18JVlXI8Y-3o4-60" value="free_seats" style="ellipse;whiteSpace=wrap;html=1;align=center;fontFamily=Helvetica;fontSize=11;labelBackgroundColor=none;fillColor=#f5f5f5;strokeColor=#666666;fontColor=#333333;" parent="1" vertex="1">
          <mxGeometry x="440" y="1360" width="100" height="40" as="geometry" />
        </mxCell>
        <mxCell id="yvve5Ez18JVlXI8Y-3o4-61" style="edgeStyle=none;shape=connector;rounded=0;orthogonalLoop=1;jettySize=auto;html=1;exitX=1;exitY=0.5;exitDx=0;exitDy=0;entryX=0;entryY=0.5;entryDx=0;entryDy=0;strokeColor=#36393d;align=center;verticalAlign=middle;fontFamily=Helvetica;fontSize=11;fontColor=default;labelBackgroundColor=none;startFill=0;endArrow=none;fillColor=#cce5ff;" parent="1" source="yvve5Ez18JVlXI8Y-3o4-62" target="yvve5Ez18JVlXI8Y-3o4-59" edge="1">
          <mxGeometry relative="1" as="geometry" />
        </mxCell>
        <mxCell id="yvve5Ez18JVlXI8Y-3o4-62" value="date" style="ellipse;whiteSpace=wrap;html=1;align=center;fontFamily=Helvetica;fontSize=11;labelBackgroundColor=none;fillColor=#f5f5f5;strokeColor=#666666;fontColor=#333333;" parent="1" vertex="1">
          <mxGeometry x="240" y="1260" width="100" height="40" as="geometry" />
        </mxCell>
        <mxCell id="yvve5Ez18JVlXI8Y-3o4-63" style="edgeStyle=none;shape=connector;rounded=0;orthogonalLoop=1;jettySize=auto;html=1;exitX=1;exitY=0.5;exitDx=0;exitDy=0;entryX=0;entryY=0.5;entryDx=0;entryDy=0;strokeColor=#36393d;align=center;verticalAlign=middle;fontFamily=Helvetica;fontSize=11;fontColor=default;labelBackgroundColor=none;startFill=0;endArrow=none;fillColor=#cce5ff;" parent="1" source="yvve5Ez18JVlXI8Y-3o4-64" target="yvve5Ez18JVlXI8Y-3o4-58" edge="1">
          <mxGeometry relative="1" as="geometry" />
        </mxCell>
        <mxCell id="yvve5Ez18JVlXI8Y-3o4-64" value="id_flight" style="ellipse;whiteSpace=wrap;html=1;align=center;fontFamily=Helvetica;fontSize=11;labelBackgroundColor=none;fillColor=#f5f5f5;strokeColor=#666666;fontColor=#333333;fontStyle=4" parent="1" vertex="1">
          <mxGeometry x="240" y="1210" width="100" height="40" as="geometry" />
        </mxCell>
        <mxCell id="yvve5Ez18JVlXI8Y-3o4-65" style="edgeStyle=none;shape=connector;rounded=0;orthogonalLoop=1;jettySize=auto;html=1;exitX=0;exitY=0.5;exitDx=0;exitDy=0;entryX=1;entryY=0.5;entryDx=0;entryDy=0;strokeColor=#36393d;align=center;verticalAlign=middle;fontFamily=Helvetica;fontSize=11;fontColor=default;labelBackgroundColor=none;startFill=0;endArrow=none;fillColor=#cce5ff;" parent="1" source="yvve5Ez18JVlXI8Y-3o4-66" target="yvve5Ez18JVlXI8Y-3o4-55" edge="1">
          <mxGeometry relative="1" as="geometry" />
        </mxCell>
        <mxCell id="yvve5Ez18JVlXI8Y-3o4-66" value="departure_time" style="ellipse;whiteSpace=wrap;html=1;align=center;fontFamily=Helvetica;fontSize=11;labelBackgroundColor=none;fillColor=#f5f5f5;strokeColor=#666666;fontColor=#333333;" parent="1" vertex="1">
          <mxGeometry x="440" y="1310" width="100" height="40" as="geometry" />
        </mxCell>
        <mxCell id="yvve5Ez18JVlXI8Y-3o4-67" value="Takes" style="shape=rhombus;perimeter=rhombusPerimeter;whiteSpace=wrap;html=1;align=center;fontFamily=Helvetica;fontSize=11;labelBackgroundColor=none;fillColor=#d5e8d4;strokeColor=#82b366;" parent="1" vertex="1">
          <mxGeometry x="330" y="1030" width="120" height="60" as="geometry" />
        </mxCell>
        <mxCell id="yvve5Ez18JVlXI8Y-3o4-68" value="SSN" style="ellipse;whiteSpace=wrap;html=1;align=center;fontFamily=Helvetica;fontSize=11;labelBackgroundColor=none;fillColor=#f5f5f5;strokeColor=#666666;fontColor=#333333;" parent="1" vertex="1">
          <mxGeometry x="210" y="870" width="100" height="40" as="geometry" />
        </mxCell>
        <mxCell id="yvve5Ez18JVlXI8Y-3o4-69" value="ticket_number" style="ellipse;whiteSpace=wrap;html=1;align=center;fontFamily=Helvetica;fontSize=11;labelBackgroundColor=none;fillColor=#f5f5f5;strokeColor=#666666;fontColor=#333333;fontStyle=4" parent="1" vertex="1">
          <mxGeometry x="470" y="870" width="100" height="40" as="geometry" />
        </mxCell>
        <mxCell id="yvve5Ez18JVlXI8Y-3o4-72" value="name" style="ellipse;whiteSpace=wrap;html=1;align=center;fontFamily=Helvetica;fontSize=11;labelBackgroundColor=none;fillColor=#f5f5f5;strokeColor=#666666;fontColor=#333333;" parent="1" vertex="1">
          <mxGeometry x="280" y="820" width="100" height="40" as="geometry" />
        </mxCell>
        <mxCell id="yvve5Ez18JVlXI8Y-3o4-74" style="edgeStyle=none;shape=connector;rounded=0;orthogonalLoop=1;jettySize=auto;html=1;exitX=1;exitY=0.5;exitDx=0;exitDy=0;entryX=0;entryY=0.5;entryDx=0;entryDy=0;strokeColor=#36393d;align=center;verticalAlign=middle;fontFamily=Helvetica;fontSize=11;fontColor=default;labelBackgroundColor=none;startFill=0;endArrow=none;fillColor=#cce5ff;" parent="1" source="yvve5Ez18JVlXI8Y-3o4-75" target="yvve5Ez18JVlXI8Y-3o4-27" edge="1">
          <mxGeometry relative="1" as="geometry" />
        </mxCell>
        <mxCell id="yvve5Ez18JVlXI8Y-3o4-75" value="seat" style="ellipse;whiteSpace=wrap;html=1;align=center;fontFamily=Helvetica;fontSize=11;labelBackgroundColor=none;fillColor=#f5f5f5;strokeColor=#666666;fontColor=#333333;" parent="1" vertex="1">
          <mxGeometry x="210" y="940" width="100" height="40" as="geometry" />
        </mxCell>
        <mxCell id="yvve5Ez18JVlXI8Y-3o4-76" value="(0,N)&lt;span style=&quot;font-family: monospace; font-size: 0px; text-align: start; text-wrap-mode: nowrap;&quot;&gt;%3CmxGraphModel%3E%3Croot%3E%3CmxCell%20id%3D%220%22%2F%3E%3CmxCell%20id%3D%221%22%20parent%3D%220%22%2F%3E%3CmxCell%20id%3D%222%22%20value%3D%22(0%2CN)%22%20style%3D%22text%3Bhtml%3D1%3Balign%3Dcenter%3BverticalAlign%3Dmiddle%3BwhiteSpace%3Dwrap%3Brounded%3D0%3BfontFamily%3DHelvetica%3BfontSize%3D11%3BfontColor%3Ddefault%3BlabelBackgroundColor%3Dnone%3B%22%20vertex%3D%221%22%20parent%3D%221%22%3E%3CmxGeometry%20x%3D%22440%22%20y%3D%22240%22%20width%3D%2260%22%20height%3D%2230%22%20as%3D%22geometry%22%2F%3E%3C%2FmxCell%3E%3C%2Froot%3E%3C%2FmxGraphModel%3E&lt;/span&gt;" style="text;html=1;align=center;verticalAlign=middle;whiteSpace=wrap;rounded=0;fontFamily=Helvetica;fontSize=11;labelBackgroundColor=none;fillColor=none;strokeColor=none;fontColor=light-dark(#94d1ff, #ededed);" parent="1" vertex="1">
          <mxGeometry x="390" y="1120" width="60" height="30" as="geometry" />
        </mxCell>
        <mxCell id="yvve5Ez18JVlXI8Y-3o4-77" value="(1,1)" style="text;html=1;align=center;verticalAlign=middle;whiteSpace=wrap;rounded=0;fontFamily=Helvetica;fontSize=11;labelBackgroundColor=none;fillColor=none;strokeColor=none;fontColor=light-dark(#94d1ff, #ededed);" parent="1" vertex="1">
          <mxGeometry x="390" y="980" width="60" height="30" as="geometry" />
        </mxCell>
        <mxCell id="yvve5Ez18JVlXI8Y-3o4-78" value="Has" style="shape=rhombus;perimeter=rhombusPerimeter;whiteSpace=wrap;html=1;align=center;fontFamily=Helvetica;fontSize=11;labelBackgroundColor=none;fillColor=#d5e8d4;strokeColor=#82b366;" parent="1" vertex="1">
          <mxGeometry x="520" y="930" width="120" height="60" as="geometry" />
        </mxCell>
        <mxCell id="yvve5Ez18JVlXI8Y-3o4-79" style="edgeStyle=none;shape=connector;rounded=0;orthogonalLoop=1;jettySize=auto;html=1;exitX=1;exitY=0.5;exitDx=0;exitDy=0;entryX=0;entryY=0.5;entryDx=0;entryDy=0;strokeColor=#36393d;align=center;verticalAlign=middle;fontFamily=Helvetica;fontSize=11;fontColor=default;labelBackgroundColor=none;startFill=0;endArrow=none;fillColor=#cce5ff;" parent="1" source="yvve5Ez18JVlXI8Y-3o4-81" target="yvve5Ez18JVlXI8Y-3o4-85" edge="1">
          <mxGeometry relative="1" as="geometry" />
        </mxCell>
        <mxCell id="yvve5Ez18JVlXI8Y-3o4-80" style="edgeStyle=none;shape=connector;rounded=0;orthogonalLoop=1;jettySize=auto;html=1;exitX=1;exitY=1;exitDx=0;exitDy=0;entryX=0;entryY=0.5;entryDx=0;entryDy=0;strokeColor=#36393d;align=center;verticalAlign=middle;fontFamily=Helvetica;fontSize=11;fontColor=default;labelBackgroundColor=none;startFill=0;endArrow=none;fillColor=#cce5ff;" parent="1" source="yvve5Ez18JVlXI8Y-3o4-81" target="yvve5Ez18JVlXI8Y-3o4-86" edge="1">
          <mxGeometry relative="1" as="geometry" />
        </mxCell>
        <mxCell id="yvve5Ez18JVlXI8Y-3o4-81" value="Luggage" style="whiteSpace=wrap;html=1;align=center;fontFamily=Helvetica;fontSize=11;labelBackgroundColor=none;fillColor=#cce5ff;strokeColor=#36393d;" parent="1" vertex="1">
          <mxGeometry x="720" y="940" width="100" height="40" as="geometry" />
        </mxCell>
        <mxCell id="yvve5Ez18JVlXI8Y-3o4-82" value="(0,N)&lt;span style=&quot;font-family: monospace; font-size: 0px; text-align: start; text-wrap-mode: nowrap;&quot;&gt;%3CmxGraphModel%3E%3Croot%3E%3CmxCell%20id%3D%220%22%2F%3E%3CmxCell%20id%3D%221%22%20parent%3D%220%22%2F%3E%3CmxCell%20id%3D%222%22%20value%3D%22(1%2C1)%22%20style%3D%22text%3Bhtml%3D1%3Balign%3Dcenter%3BverticalAlign%3Dmiddle%3BwhiteSpace%3Dwrap%3Brounded%3D0%3BfontFamily%3DHelvetica%3BfontSize%3D11%3BfontColor%3Ddefault%3BlabelBackgroundColor%3Dnone%3B%22%20vertex%3D%221%22%20parent%3D%221%22%3E%3CmxGeometry%20x%3D%22550%22%20y%3D%2280%22%20width%3D%2260%22%20height%3D%2230%22%20as%3D%22geometry%22%2F%3E%3C%2FmxCell%3E%3C%2Froot%3E%3C%2FmxGraphModel%3E&lt;/span&gt;" style="text;html=1;align=center;verticalAlign=middle;whiteSpace=wrap;rounded=0;fontFamily=Helvetica;fontSize=11;labelBackgroundColor=none;fillColor=none;strokeColor=none;fontColor=light-dark(#94d1ff, #ededed);" parent="1" vertex="1">
          <mxGeometry x="440" y="930" width="60" height="30" as="geometry" />
        </mxCell>
        <mxCell id="yvve5Ez18JVlXI8Y-3o4-83" value="(1,1)" style="text;html=1;align=center;verticalAlign=middle;whiteSpace=wrap;rounded=0;fontFamily=Helvetica;fontSize=11;labelBackgroundColor=none;fillColor=none;strokeColor=none;fontColor=light-dark(#94d1ff, #ededed);" parent="1" vertex="1">
          <mxGeometry x="660" y="930" width="60" height="30" as="geometry" />
        </mxCell>
        <mxCell id="yvve5Ez18JVlXI8Y-3o4-84" value="id_luggage" style="ellipse;whiteSpace=wrap;html=1;align=center;fontFamily=Helvetica;fontSize=11;labelBackgroundColor=none;fillColor=#f5f5f5;strokeColor=#666666;fontColor=#333333;fontStyle=4" parent="1" vertex="1">
          <mxGeometry x="860" y="880" width="100" height="40" as="geometry" />
        </mxCell>
        <mxCell id="yvve5Ez18JVlXI8Y-3o4-85" value="type" style="ellipse;whiteSpace=wrap;html=1;align=center;fontFamily=Helvetica;fontSize=11;labelBackgroundColor=none;fillColor=#f5f5f5;strokeColor=#666666;fontColor=#333333;" parent="1" vertex="1">
          <mxGeometry x="860" y="940" width="100" height="40" as="geometry" />
        </mxCell>
        <mxCell id="yvve5Ez18JVlXI8Y-3o4-86" value="luggage_status" style="ellipse;whiteSpace=wrap;html=1;align=center;fontFamily=Helvetica;fontSize=11;labelBackgroundColor=none;fillColor=#f5f5f5;strokeColor=#666666;fontColor=#333333;" parent="1" vertex="1">
          <mxGeometry x="860" y="1000" width="100" height="40" as="geometry" />
        </mxCell>
        <mxCell id="yvve5Ez18JVlXI8Y-3o4-87" style="edgeStyle=none;shape=connector;rounded=0;orthogonalLoop=1;jettySize=auto;html=1;exitX=1;exitY=0;exitDx=0;exitDy=0;strokeColor=#36393d;align=center;verticalAlign=middle;fontFamily=Helvetica;fontSize=11;fontColor=default;labelBackgroundColor=none;startFill=0;endArrow=none;entryX=0;entryY=0.5;entryDx=0;entryDy=0;fillColor=#cce5ff;" parent="1" source="yvve5Ez18JVlXI8Y-3o4-81" target="yvve5Ez18JVlXI8Y-3o4-84" edge="1">
          <mxGeometry relative="1" as="geometry">
            <mxPoint x="820" y="900" as="targetPoint" />
          </mxGeometry>
        </mxCell>
        <mxCell id="yvve5Ez18JVlXI8Y-3o4-88" value="delay" style="ellipse;whiteSpace=wrap;html=1;align=center;fontFamily=Helvetica;fontSize=11;labelBackgroundColor=none;fillColor=#f5f5f5;strokeColor=#666666;fontColor=#333333;" parent="1" vertex="1">
          <mxGeometry x="440" y="1410" width="100" height="40" as="geometry" />
        </mxCell>
        <mxCell id="yvve5Ez18JVlXI8Y-3o4-89" value="city" style="ellipse;whiteSpace=wrap;html=1;align=center;fontFamily=Helvetica;fontSize=11;labelBackgroundColor=none;fillColor=#f5f5f5;strokeColor=#666666;fontColor=#333333;" parent="1" vertex="1">
          <mxGeometry x="240" y="1410" width="100" height="40" as="geometry" />
        </mxCell>
        <mxCell id="yvve5Ez18JVlXI8Y-3o4-92" value="id_gate" style="ellipse;whiteSpace=wrap;html=1;align=center;fontFamily=Helvetica;fontSize=11;labelBackgroundColor=none;fillColor=#f5f5f5;strokeColor=#666666;fontColor=#333333;fontStyle=4" parent="1" vertex="1">
          <mxGeometry x="860" y="1150" width="100" height="40" as="geometry" />
        </mxCell>
        <mxCell id="yvve5Ez18JVlXI8Y-3o4-108" style="edgeStyle=none;shape=connector;rounded=0;orthogonalLoop=1;jettySize=auto;html=1;exitX=1;exitY=0.5;exitDx=0;exitDy=0;entryX=0;entryY=0.5;entryDx=0;entryDy=0;strokeColor=default;align=center;verticalAlign=middle;fontFamily=Helvetica;fontSize=11;fontColor=default;labelBackgroundColor=default;startFill=0;endArrow=none;" parent="1" source="yvve5Ez18JVlXI8Y-3o4-93" target="yvve5Ez18JVlXI8Y-3o4-42" edge="1">
          <mxGeometry relative="1" as="geometry" />
        </mxCell>
        <mxCell id="yvve5Ez18JVlXI8Y-3o4-93" value="From" style="shape=rhombus;perimeter=rhombusPerimeter;whiteSpace=wrap;html=1;align=center;fontFamily=Helvetica;fontSize=11;labelBackgroundColor=none;fillColor=#d5e8d4;strokeColor=#82b366;" parent="1" vertex="1">
          <mxGeometry x="520" y="1140" width="120" height="60" as="geometry" />
        </mxCell>
        <mxCell id="yvve5Ez18JVlXI8Y-3o4-95" value="(0,1)" style="text;html=1;align=center;verticalAlign=middle;whiteSpace=wrap;rounded=0;fontFamily=Helvetica;fontSize=11;labelBackgroundColor=none;fillColor=none;strokeColor=none;fontColor=light-dark(#94d1ff, #ededed);" parent="1" vertex="1">
          <mxGeometry x="440" y="1140" width="60" height="30" as="geometry" />
        </mxCell>
        <mxCell id="yvve5Ez18JVlXI8Y-3o4-96" value="(0,N)" style="text;html=1;align=center;verticalAlign=middle;whiteSpace=wrap;rounded=0;fontFamily=Helvetica;fontSize=11;labelBackgroundColor=none;fillColor=none;strokeColor=none;fontColor=light-dark(#94d1ff, #ededed);" parent="1" vertex="1">
          <mxGeometry x="660" y="1140" width="60" height="30" as="geometry" />
        </mxCell>
        <mxCell id="yvve5Ez18JVlXI8Y-3o4-97" value="Includes" style="shape=rhombus;perimeter=rhombusPerimeter;whiteSpace=wrap;html=1;align=center;fontFamily=Helvetica;fontSize=11;labelBackgroundColor=none;fillColor=#d5e8d4;strokeColor=#82b366;" parent="1" vertex="1">
          <mxGeometry x="140" y="1030" width="120" height="60" as="geometry" />
        </mxCell>
        <mxCell id="yvve5Ez18JVlXI8Y-3o4-98" value="checked-in" style="ellipse;whiteSpace=wrap;html=1;align=center;fontFamily=Helvetica;fontSize=11;labelBackgroundColor=none;fillColor=#f5f5f5;strokeColor=#666666;fontColor=#333333;" parent="1" vertex="1">
          <mxGeometry x="400" y="820" width="100" height="40" as="geometry" />
        </mxCell>
        <mxCell id="yvve5Ez18JVlXI8Y-3o4-99" value="(0,N)" style="text;html=1;align=center;verticalAlign=middle;whiteSpace=wrap;rounded=0;fontFamily=Helvetica;fontSize=11;labelBackgroundColor=none;fillColor=none;strokeColor=none;fontColor=light-dark(#94d1ff, #ededed);" parent="1" vertex="1">
          <mxGeometry x="40" y="1140" width="60" height="30" as="geometry" />
        </mxCell>
        <mxCell id="yvve5Ez18JVlXI8Y-3o4-100" value="(1,1)" style="text;html=1;align=center;verticalAlign=middle;whiteSpace=wrap;rounded=0;fontFamily=Helvetica;fontSize=11;labelBackgroundColor=none;fillColor=none;strokeColor=none;fontColor=light-dark(#94d1ff, #ededed);" parent="1" vertex="1">
          <mxGeometry x="310" y="980" width="60" height="30" as="geometry" />
        </mxCell>
        <mxCell id="yvve5Ez18JVlXI8Y-3o4-107" value="type" style="ellipse;whiteSpace=wrap;html=1;align=center;fontFamily=Helvetica;fontSize=11;labelBackgroundColor=none;fillColor=#f5f5f5;strokeColor=#666666;fontColor=#333333;" parent="1" vertex="1">
          <mxGeometry x="340" y="1460" width="100" height="40" as="geometry" />
        </mxCell>
        <mxCell id="kwWxKuvhRkfxEUBwmgUF-1" value="&lt;div&gt;&lt;span style=&quot;font-size: 8px; background-color: transparent; color: light-dark(rgb(0, 0, 0), rgb(255, 255, 255));&quot;&gt;Un&#39;unica stringa con nome e cognome&lt;/span&gt;&lt;/div&gt;" style="shape=note;whiteSpace=wrap;html=1;backgroundOutline=1;darkOpacity=0.05;size=16;" vertex="1" parent="1">
          <mxGeometry x="170" y="770" width="90" height="50" as="geometry" />
        </mxCell>
        <mxCell id="kwWxKuvhRkfxEUBwmgUF-2" style="rounded=0;orthogonalLoop=1;jettySize=auto;html=1;exitX=0;exitY=0;exitDx=0;exitDy=0;entryX=1;entryY=1;entryDx=0;entryDy=0;entryPerimeter=0;endArrow=none;startFill=0;dashed=1;dashPattern=1 2;" edge="1" parent="1" source="yvve5Ez18JVlXI8Y-3o4-72" target="kwWxKuvhRkfxEUBwmgUF-1">
          <mxGeometry relative="1" as="geometry" />
        </mxCell>
        <mxCell id="kwWxKuvhRkfxEUBwmgUF-3" value="&lt;div&gt;&lt;span style=&quot;font-size: 8px; background-color: transparent; color: light-dark(rgb(0, 0, 0), rgb(255, 255, 255));&quot;&gt;Arriving or Departing&lt;/span&gt;&lt;/div&gt;" style="shape=note;whiteSpace=wrap;html=1;backgroundOutline=1;darkOpacity=0.05;size=16;" vertex="1" parent="1">
          <mxGeometry x="445" y="1510" width="90" height="50" as="geometry" />
        </mxCell>
        <mxCell id="kwWxKuvhRkfxEUBwmgUF-4" style="rounded=0;orthogonalLoop=1;jettySize=auto;html=1;exitX=1;exitY=1;exitDx=0;exitDy=0;entryX=0;entryY=0;entryDx=0;entryDy=0;entryPerimeter=0;endArrow=none;startFill=0;dashed=1;dashPattern=1 2;" edge="1" parent="1" source="yvve5Ez18JVlXI8Y-3o4-107" target="kwWxKuvhRkfxEUBwmgUF-3">
          <mxGeometry relative="1" as="geometry" />
        </mxCell>
        <mxCell id="kwWxKuvhRkfxEUBwmgUF-6" style="edgeStyle=none;shape=connector;rounded=0;orthogonalLoop=1;jettySize=auto;html=1;exitX=0;exitY=0.5;exitDx=0;exitDy=0;entryX=1;entryY=0.5;entryDx=0;entryDy=0;strokeColor=#36393d;align=center;verticalAlign=middle;fontFamily=Helvetica;fontSize=11;fontColor=default;labelBackgroundColor=none;startFill=0;endArrow=none;fillColor=#cce5ff;" edge="1" parent="1" source="kwWxKuvhRkfxEUBwmgUF-8" target="kwWxKuvhRkfxEUBwmgUF-10">
          <mxGeometry relative="1" as="geometry" />
        </mxCell>
        <mxCell id="kwWxKuvhRkfxEUBwmgUF-7" style="edgeStyle=none;shape=connector;rounded=0;orthogonalLoop=1;jettySize=auto;html=1;exitX=0;exitY=1;exitDx=0;exitDy=0;entryX=1;entryY=0.5;entryDx=0;entryDy=0;strokeColor=#36393d;align=center;verticalAlign=middle;fontFamily=Helvetica;fontSize=11;fontColor=default;labelBackgroundColor=none;startFill=0;endArrow=none;fillColor=#cce5ff;" edge="1" parent="1" source="kwWxKuvhRkfxEUBwmgUF-8" target="kwWxKuvhRkfxEUBwmgUF-11">
          <mxGeometry relative="1" as="geometry" />
        </mxCell>
        <mxCell id="kwWxKuvhRkfxEUBwmgUF-8" value="Customer" style="whiteSpace=wrap;html=1;align=center;fontFamily=Helvetica;fontSize=11;labelBackgroundColor=none;fillColor=#cce5ff;strokeColor=#36393d;" vertex="1" parent="1">
          <mxGeometry x="-500" y="1150" width="100" height="40" as="geometry" />
        </mxCell>
        <mxCell id="kwWxKuvhRkfxEUBwmgUF-9" value="username" style="ellipse;whiteSpace=wrap;html=1;align=center;fontFamily=Helvetica;fontSize=11;labelBackgroundColor=none;fillColor=#f5f5f5;strokeColor=#666666;fontColor=#333333;" vertex="1" parent="1">
          <mxGeometry x="-640" y="1090" width="100" height="40" as="geometry" />
        </mxCell>
        <mxCell id="kwWxKuvhRkfxEUBwmgUF-10" value="email" style="ellipse;whiteSpace=wrap;html=1;align=center;fontFamily=Helvetica;fontSize=11;labelBackgroundColor=none;fillColor=#f5f5f5;strokeColor=#666666;fontColor=#333333;fontStyle=4" vertex="1" parent="1">
          <mxGeometry x="-640" y="1150" width="100" height="40" as="geometry" />
        </mxCell>
        <mxCell id="kwWxKuvhRkfxEUBwmgUF-11" value="password" style="ellipse;whiteSpace=wrap;html=1;align=center;fontFamily=Helvetica;fontSize=11;labelBackgroundColor=none;fillColor=#f5f5f5;strokeColor=#666666;fontColor=#333333;" vertex="1" parent="1">
          <mxGeometry x="-640" y="1210" width="100" height="40" as="geometry" />
        </mxCell>
        <mxCell id="kwWxKuvhRkfxEUBwmgUF-12" style="edgeStyle=none;shape=connector;rounded=0;orthogonalLoop=1;jettySize=auto;html=1;exitX=0;exitY=0;exitDx=0;exitDy=0;strokeColor=#36393d;align=center;verticalAlign=middle;fontFamily=Helvetica;fontSize=11;fontColor=default;labelBackgroundColor=none;startFill=0;endArrow=none;entryX=1;entryY=0.5;entryDx=0;entryDy=0;fillColor=#cce5ff;" edge="1" parent="1" source="kwWxKuvhRkfxEUBwmgUF-8" target="kwWxKuvhRkfxEUBwmgUF-9">
          <mxGeometry relative="1" as="geometry">
            <mxPoint x="-400" y="1110" as="targetPoint" />
          </mxGeometry>
        </mxCell>
        <mxCell id="kwWxKuvhRkfxEUBwmgUF-14" value="&lt;u&gt;email&lt;/u&gt;" style="ellipse;whiteSpace=wrap;html=1;align=center;fontFamily=Helvetica;fontSize=11;labelBackgroundColor=none;fillColor=#f5f5f5;strokeColor=#666666;fontColor=#333333;" vertex="1" parent="1">
          <mxGeometry x="-500" y="1010" width="100" height="40" as="geometry" />
        </mxCell>
        <mxCell id="kwWxKuvhRkfxEUBwmgUF-16" value="id_booking" style="ellipse;whiteSpace=wrap;html=1;align=center;fontFamily=Helvetica;fontSize=11;labelBackgroundColor=none;fillColor=#f5f5f5;strokeColor=#666666;fontColor=#333333;fontStyle=4" vertex="1" parent="1">
          <mxGeometry x="-50" y="1230" width="100" height="40" as="geometry" />
        </mxCell>
        <mxCell id="kwWxKuvhRkfxEUBwmgUF-17" style="edgeStyle=orthogonalEdgeStyle;rounded=0;orthogonalLoop=1;jettySize=auto;html=1;exitX=0.5;exitY=1;exitDx=0;exitDy=0;entryX=0.5;entryY=0;entryDx=0;entryDy=0;endArrow=none;startFill=0;" edge="1" parent="1" source="yvve5Ez18JVlXI8Y-3o4-16" target="kwWxKuvhRkfxEUBwmgUF-16">
          <mxGeometry relative="1" as="geometry">
            <Array as="points" />
          </mxGeometry>
        </mxCell>
        <mxCell id="kwWxKuvhRkfxEUBwmgUF-20" value="" style="group" vertex="1" connectable="0" parent="1">
          <mxGeometry x="-600" y="2100" width="140" height="60" as="geometry" />
        </mxCell>
        <mxCell id="kwWxKuvhRkfxEUBwmgUF-18" value="&lt;font style=&quot;font-size: 10px;&quot;&gt;&lt;span style=&quot;font-weight: normal;&quot;&gt;username, &lt;/span&gt;email&lt;span style=&quot;font-weight: normal;&quot;&gt;, password&lt;/span&gt;&lt;/font&gt;" style="shape=folder;fontStyle=1;spacingTop=10;tabWidth=60;tabHeight=10;tabPosition=left;html=1;whiteSpace=wrap;" vertex="1" parent="kwWxKuvhRkfxEUBwmgUF-20">
          <mxGeometry y="10" width="140" height="50" as="geometry" />
        </mxCell>
        <mxCell id="kwWxKuvhRkfxEUBwmgUF-19" value="&lt;b&gt;&lt;font style=&quot;font-size: 10px;&quot;&gt;Customer&lt;/font&gt;&lt;/b&gt;" style="text;html=1;align=center;verticalAlign=middle;whiteSpace=wrap;rounded=0;" vertex="1" parent="kwWxKuvhRkfxEUBwmgUF-20">
          <mxGeometry width="64.61538461538461" height="30" as="geometry" />
        </mxCell>
        <mxCell id="kwWxKuvhRkfxEUBwmgUF-21" value="" style="group" vertex="1" connectable="0" parent="1">
          <mxGeometry x="-600" y="1940" width="140" height="60" as="geometry" />
        </mxCell>
        <mxCell id="kwWxKuvhRkfxEUBwmgUF-22" value="&lt;font style=&quot;font-size: 10px;&quot;&gt;&lt;span style=&quot;font-weight: normal;&quot;&gt;username, &lt;/span&gt;email&lt;span style=&quot;font-weight: normal;&quot;&gt;, password&lt;/span&gt;&lt;/font&gt;" style="shape=folder;fontStyle=1;spacingTop=10;tabWidth=60;tabHeight=10;tabPosition=left;html=1;whiteSpace=wrap;" vertex="1" parent="kwWxKuvhRkfxEUBwmgUF-21">
          <mxGeometry y="10" width="140" height="50" as="geometry" />
        </mxCell>
        <mxCell id="kwWxKuvhRkfxEUBwmgUF-23" value="&lt;b&gt;&lt;font style=&quot;font-size: 10px;&quot;&gt;Admin&lt;/font&gt;&lt;/b&gt;" style="text;html=1;align=center;verticalAlign=middle;whiteSpace=wrap;rounded=0;" vertex="1" parent="kwWxKuvhRkfxEUBwmgUF-21">
          <mxGeometry width="64.61538461538461" height="30" as="geometry" />
        </mxCell>
        <mxCell id="kwWxKuvhRkfxEUBwmgUF-24" value="" style="group" vertex="1" connectable="0" parent="1">
          <mxGeometry x="-340" y="2100" width="270" height="60" as="geometry" />
        </mxCell>
        <mxCell id="kwWxKuvhRkfxEUBwmgUF-25" value="&lt;span style=&quot;font-size: 10px;&quot;&gt;booking_id&lt;span style=&quot;font-weight: 400;&quot;&gt;, booking_status, &lt;/span&gt;&lt;u style=&quot;font-weight: 400;&quot;&gt;customer_email&lt;/u&gt;&lt;span style=&quot;font-weight: 400;&quot;&gt;, &lt;u&gt;id_flight&lt;/u&gt;&lt;/span&gt;&lt;/span&gt;" style="shape=folder;fontStyle=1;spacingTop=10;tabWidth=60;tabHeight=10;tabPosition=left;html=1;whiteSpace=wrap;" vertex="1" parent="kwWxKuvhRkfxEUBwmgUF-24">
          <mxGeometry y="10" width="270" height="50" as="geometry" />
        </mxCell>
        <mxCell id="kwWxKuvhRkfxEUBwmgUF-26" value="&lt;b&gt;&lt;font style=&quot;font-size: 10px;&quot;&gt;Booking&lt;/font&gt;&lt;/b&gt;" style="text;html=1;align=center;verticalAlign=middle;whiteSpace=wrap;rounded=0;" vertex="1" parent="kwWxKuvhRkfxEUBwmgUF-24">
          <mxGeometry width="55.86206896551724" height="30" as="geometry" />
        </mxCell>
        <mxCell id="kwWxKuvhRkfxEUBwmgUF-29" value="" style="group" vertex="1" connectable="0" parent="1">
          <mxGeometry x="50" y="1940" width="310" height="60" as="geometry" />
        </mxCell>
        <mxCell id="kwWxKuvhRkfxEUBwmgUF-30" value="&lt;span style=&quot;font-size: 10px;&quot;&gt;ticket_number&lt;span style=&quot;font-weight: normal;&quot;&gt;, SSN, name, seat, checked-in, &lt;u&gt;id&amp;nbsp;booking&lt;/u&gt;, &lt;u&gt;id_flight&lt;/u&gt;&lt;/span&gt;&lt;/span&gt;" style="shape=folder;fontStyle=1;spacingTop=10;tabWidth=60;tabHeight=10;tabPosition=left;html=1;whiteSpace=wrap;" vertex="1" parent="kwWxKuvhRkfxEUBwmgUF-29">
          <mxGeometry y="10" width="310" height="50" as="geometry" />
        </mxCell>
        <mxCell id="kwWxKuvhRkfxEUBwmgUF-31" value="&lt;b&gt;&lt;font style=&quot;font-size: 10px;&quot;&gt;Passenger&lt;/font&gt;&lt;/b&gt;" style="text;html=1;align=center;verticalAlign=middle;whiteSpace=wrap;rounded=0;" vertex="1" parent="kwWxKuvhRkfxEUBwmgUF-29">
          <mxGeometry width="60" height="30" as="geometry" />
        </mxCell>
        <mxCell id="kwWxKuvhRkfxEUBwmgUF-32" value="" style="group" vertex="1" connectable="0" parent="1">
          <mxGeometry x="50" y="2100" width="310" height="60" as="geometry" />
        </mxCell>
        <mxCell id="kwWxKuvhRkfxEUBwmgUF-33" value="&lt;span style=&quot;font-size: 10px;&quot;&gt;id_flight&lt;span style=&quot;font-weight: normal;&quot;&gt;, company_name, date, flight_status, arrival_time, departure_time,&amp;nbsp;&lt;/span&gt;&lt;/span&gt;&lt;span style=&quot;font-size: 10px; font-weight: 400;&quot;&gt;delay,&lt;/span&gt;&lt;span style=&quot;font-size: 10px;&quot;&gt;&lt;span style=&quot;font-weight: normal;&quot;&gt;&amp;nbsp;max_seats, free_seats, type, city, &lt;u&gt;id_gate&lt;/u&gt;&lt;/span&gt;&lt;/span&gt;" style="shape=folder;fontStyle=1;spacingTop=10;tabWidth=60;tabHeight=10;tabPosition=left;html=1;whiteSpace=wrap;" vertex="1" parent="kwWxKuvhRkfxEUBwmgUF-32">
          <mxGeometry y="10" width="310" height="50" as="geometry" />
        </mxCell>
        <mxCell id="kwWxKuvhRkfxEUBwmgUF-34" value="&lt;b&gt;&lt;font style=&quot;font-size: 10px;&quot;&gt;Flight&lt;/font&gt;&lt;/b&gt;" style="text;html=1;align=center;verticalAlign=middle;whiteSpace=wrap;rounded=0;" vertex="1" parent="kwWxKuvhRkfxEUBwmgUF-32">
          <mxGeometry width="60" height="30" as="geometry" />
        </mxCell>
        <mxCell id="kwWxKuvhRkfxEUBwmgUF-35" value="" style="group" vertex="1" connectable="0" parent="1">
          <mxGeometry x="480" y="1940" width="210" height="60" as="geometry" />
        </mxCell>
        <mxCell id="kwWxKuvhRkfxEUBwmgUF-36" value="&lt;span style=&quot;font-size: 10px;&quot;&gt;id_luggage&lt;span style=&quot;font-weight: normal;&quot;&gt;, type, luggage_status, &lt;u&gt;passenger&lt;/u&gt;&lt;/span&gt;&lt;/span&gt;" style="shape=folder;fontStyle=1;spacingTop=10;tabWidth=60;tabHeight=10;tabPosition=left;html=1;whiteSpace=wrap;" vertex="1" parent="kwWxKuvhRkfxEUBwmgUF-35">
          <mxGeometry y="10" width="210" height="50" as="geometry" />
        </mxCell>
        <mxCell id="kwWxKuvhRkfxEUBwmgUF-37" value="&lt;b&gt;&lt;font style=&quot;font-size: 10px;&quot;&gt;Luggage&lt;/font&gt;&lt;/b&gt;" style="text;html=1;align=center;verticalAlign=middle;whiteSpace=wrap;rounded=0;" vertex="1" parent="kwWxKuvhRkfxEUBwmgUF-35">
          <mxGeometry width="40.64516129032258" height="30" as="geometry" />
        </mxCell>
        <mxCell id="kwWxKuvhRkfxEUBwmgUF-38" value="" style="group" vertex="1" connectable="0" parent="1">
          <mxGeometry x="480" y="2100" width="90" height="60" as="geometry" />
        </mxCell>
        <mxCell id="kwWxKuvhRkfxEUBwmgUF-39" value="&lt;span style=&quot;font-size: 10px;&quot;&gt;id_gate&lt;/span&gt;" style="shape=folder;fontStyle=1;spacingTop=10;tabWidth=60;tabHeight=10;tabPosition=left;html=1;whiteSpace=wrap;" vertex="1" parent="kwWxKuvhRkfxEUBwmgUF-38">
          <mxGeometry y="10" width="90" height="50" as="geometry" />
        </mxCell>
        <mxCell id="kwWxKuvhRkfxEUBwmgUF-40" value="&lt;b&gt;&lt;font style=&quot;font-size: 10px;&quot;&gt;Gate&lt;/font&gt;&lt;/b&gt;" style="text;html=1;align=center;verticalAlign=middle;whiteSpace=wrap;rounded=0;" vertex="1" parent="kwWxKuvhRkfxEUBwmgUF-38">
          <mxGeometry width="60" height="30" as="geometry" />
        </mxCell>
        <mxCell id="kwWxKuvhRkfxEUBwmgUF-41" value="" style="curved=1;endArrow=classic;html=1;rounded=0;entryX=0.571;entryY=0.8;entryDx=0;entryDy=0;entryPerimeter=0;exitX=0.667;exitY=0.8;exitDx=0;exitDy=0;exitPerimeter=0;" edge="1" parent="1" source="kwWxKuvhRkfxEUBwmgUF-25" target="kwWxKuvhRkfxEUBwmgUF-18">
          <mxGeometry width="50" height="50" relative="1" as="geometry">
            <mxPoint x="-228.33333333333326" y="2250" as="sourcePoint" />
            <mxPoint x="-205" y="2210" as="targetPoint" />
            <Array as="points">
              <mxPoint x="-180" y="2180" />
              <mxPoint x="-410" y="2210" />
            </Array>
          </mxGeometry>
        </mxCell>
        <mxCell id="kwWxKuvhRkfxEUBwmgUF-42" value="" style="curved=1;endArrow=classic;html=1;rounded=0;exitX=0.963;exitY=0.6;exitDx=0;exitDy=0;exitPerimeter=0;entryX=0.065;entryY=0.5;entryDx=0;entryDy=0;entryPerimeter=0;" edge="1" parent="1" source="kwWxKuvhRkfxEUBwmgUF-25" target="kwWxKuvhRkfxEUBwmgUF-33">
          <mxGeometry width="50" height="50" relative="1" as="geometry">
            <mxPoint x="-100" y="2150" as="sourcePoint" />
            <mxPoint x="10" y="2150" as="targetPoint" />
            <Array as="points" />
          </mxGeometry>
        </mxCell>
        <mxCell id="kwWxKuvhRkfxEUBwmgUF-43" value="" style="curved=1;endArrow=classic;html=1;rounded=0;entryX=0.222;entryY=0.6;entryDx=0;entryDy=0;entryPerimeter=0;exitX=0.968;exitY=0.8;exitDx=0;exitDy=0;exitPerimeter=0;" edge="1" parent="1" source="kwWxKuvhRkfxEUBwmgUF-33" target="kwWxKuvhRkfxEUBwmgUF-39">
          <mxGeometry width="50" height="50" relative="1" as="geometry">
            <mxPoint x="300" y="2080" as="sourcePoint" />
            <mxPoint x="420" y="2060" as="targetPoint" />
            <Array as="points" />
          </mxGeometry>
        </mxCell>
        <mxCell id="kwWxKuvhRkfxEUBwmgUF-44" value="" style="curved=1;endArrow=classic;html=1;rounded=0;exitX=0.774;exitY=0.8;exitDx=0;exitDy=0;exitPerimeter=0;entryX=0.222;entryY=0.4;entryDx=0;entryDy=0;entryPerimeter=0;" edge="1" parent="1" source="kwWxKuvhRkfxEUBwmgUF-30" target="kwWxKuvhRkfxEUBwmgUF-25">
          <mxGeometry width="50" height="50" relative="1" as="geometry">
            <mxPoint x="320" y="2030" as="sourcePoint" />
            <mxPoint x="70" y="2060" as="targetPoint" />
            <Array as="points">
              <mxPoint x="290" y="2050" />
              <mxPoint x="-270" y="2070" />
            </Array>
          </mxGeometry>
        </mxCell>
        <mxCell id="kwWxKuvhRkfxEUBwmgUF-45" value="" style="curved=1;endArrow=classic;html=1;rounded=0;exitX=0.935;exitY=0.8;exitDx=0;exitDy=0;exitPerimeter=0;entryX=0.194;entryY=0.4;entryDx=0;entryDy=0;entryPerimeter=0;" edge="1" parent="1" source="kwWxKuvhRkfxEUBwmgUF-30" target="kwWxKuvhRkfxEUBwmgUF-33">
          <mxGeometry width="50" height="50" relative="1" as="geometry">
            <mxPoint x="440" y="2120" as="sourcePoint" />
            <mxPoint x="120" y="2110" as="targetPoint" />
            <Array as="points">
              <mxPoint x="320" y="2060" />
              <mxPoint x="120" y="2100" />
            </Array>
          </mxGeometry>
        </mxCell>
        <mxCell id="kwWxKuvhRkfxEUBwmgUF-46" value="" style="curved=1;endArrow=classic;html=1;rounded=0;exitX=0.857;exitY=0.4;exitDx=0;exitDy=0;exitPerimeter=0;entryX=0.194;entryY=0.4;entryDx=0;entryDy=0;entryPerimeter=0;" edge="1" parent="1" source="kwWxKuvhRkfxEUBwmgUF-36" target="kwWxKuvhRkfxEUBwmgUF-30">
          <mxGeometry width="50" height="50" relative="1" as="geometry">
            <mxPoint x="660" y="1940" as="sourcePoint" />
            <mxPoint x="100" y="1910" as="targetPoint" />
            <Array as="points">
              <mxPoint x="390" y="1850" />
            </Array>
          </mxGeometry>
        </mxCell>
        <mxCell id="kwWxKuvhRkfxEUBwmgUF-48" value="&lt;div style=&quot;&quot;&gt;&lt;span style=&quot;background-color: transparent; color: light-dark(rgb(0, 0, 0), rgb(255, 255, 255));&quot;&gt;&lt;font style=&quot;font-size: 16px;&quot;&gt;Leggenda:&lt;/font&gt;&lt;/span&gt;&lt;/div&gt;&lt;div style=&quot;text-align: left;&quot;&gt;&lt;ul&gt;&lt;li&gt;&lt;b style=&quot;background-color: transparent; color: light-dark(rgb(0, 0, 0), rgb(255, 255, 255));&quot;&gt;&lt;font&gt;primary key&lt;/font&gt;&lt;/b&gt;&lt;/li&gt;&lt;li&gt;&lt;u style=&quot;background-color: transparent; color: light-dark(rgb(0, 0, 0), rgb(255, 255, 255));&quot;&gt;foreign key&lt;/u&gt;&lt;/li&gt;&lt;/ul&gt;&lt;/div&gt;" style="shape=note;whiteSpace=wrap;html=1;backgroundOutline=1;darkOpacity=0.05;size=16;" vertex="1" parent="1">
          <mxGeometry x="-355" y="1800" width="130" height="130" as="geometry" />
        </mxCell>
      </root>
    </mxGraphModel>
  </diagram>
</mxfile>
